<svg version="1.1" id="Layer_1" xmlns="http://www.w3.org/2000/svg" xmlns:xlink="http://www.w3.org/1999/xlink" x="0px" y="0px"
	 width="100%" viewBox="0 0 304 272" enable-background="new 0 0 304 272" xml:space="preserve">
<path fill="#FFFFFF" opacity="1.000000" stroke="none" 
	d="
M305.000000,155.532394 
	C302.525604,165.268448 294.804230,170.612411 288.893005,177.254547 
	C281.699188,185.337814 274.012268,192.980011 266.699982,200.960785 
	C259.564331,208.748764 256.407013,218.790176 252.022537,228.089661 
	C244.728836,243.559631 235.684250,257.472168 220.832443,266.826630 
	C218.203613,268.482422 215.606491,269.399719 212.446136,269.392944 
	C177.784897,269.318573 143.123352,269.320587 108.462105,269.396698 
	C105.277641,269.403687 102.713203,268.468567 100.184738,266.602661 
	C88.668533,258.104248 81.811264,246.189560 75.644272,233.716064 
	C71.350624,225.031647 67.442101,216.055969 65.178764,206.755661 
	C61.906250,193.308563 54.642067,182.032913 48.074390,170.318100 
	C38.383209,153.031891 28.440281,135.886978 18.705574,118.624924 
	C14.923830,111.918945 11.230360,105.099480 13.437702,96.904289 
	C16.234116,86.522049 23.610474,80.958519 33.632744,79.199768 
	C43.257088,77.510841 51.640144,80.807198 57.073299,89.106941 
	C62.720146,97.733116 67.661102,106.824348 72.837624,115.754601 
	C78.011459,124.680214 83.094795,133.658310 88.489532,143.088379 
	C89.405479,139.685349 87.940598,137.048584 87.311729,134.433182 
	C80.818161,107.427246 74.264900,80.434708 67.506340,53.494118 
	C65.915070,47.151077 64.140678,41.138767 66.523842,34.494370 
	C70.976044,22.081379 80.769791,17.483175 91.632118,17.475084 
	C101.299728,17.467882 111.328186,23.338734 114.499344,36.305950 
	C121.054466,63.110497 127.908531,89.841942 134.650497,116.600716 
	C134.762054,117.043465 135.011322,117.451523 135.705994,119.044456 
	C135.705994,110.772163 135.712143,103.705658 135.704865,96.639175 
	C135.681213,73.642723 136.238205,50.624897 135.399567,27.658096 
	C134.920303,14.533434 147.262558,1.646162 161.120193,2.503156 
	C175.164597,3.371701 185.275253,13.016843 185.282166,27.592524 
	C185.295837,56.421440 185.254898,85.250397 185.298035,114.079247 
	C185.300842,115.951195 184.561234,118.049812 186.888824,120.476219 
	C189.225342,113.071175 191.487015,106.229294 193.543228,99.326202 
	C200.001877,77.643372 206.254684,55.898392 212.843491,34.255497 
	C216.698792,21.591648 226.490906,15.460615 239.560333,16.910374 
	C251.542648,18.239540 261.436462,28.074451 261.763153,40.248547 
	C261.969086,47.923492 258.553833,55.156128 256.359375,62.461403 
	C246.929703,93.852631 237.317520,125.189026 227.784058,156.549118 
	C227.695267,156.841156 227.773010,157.183807 227.773010,158.557724 
	C232.139496,155.279099 235.988998,152.347656 239.881378,149.474258 
	C248.844910,142.857315 256.790771,134.881973 266.644318,129.452271 
	C271.994415,126.504166 277.760559,124.701607 283.811188,124.798309 
	C293.465149,124.952576 300.696014,129.301208 304.781464,138.743561 
	C305.000000,144.354935 305.000000,149.709854 305.000000,155.532394 
M214.702881,67.146614 
	C209.249588,85.837357 203.811432,104.532539 198.334534,123.216354 
	C196.492340,129.500793 192.590546,132.779663 187.093063,132.821533 
	C180.923584,132.868515 176.333588,129.098511 174.537323,122.686020 
	C173.803680,120.066971 173.765869,117.427795 173.766800,114.760880 
	C173.776901,85.929245 173.789825,57.097614 173.783691,28.265982 
	C173.783142,25.617079 173.866364,23.004549 172.327087,20.549915 
	C168.812317,14.944997 162.558121,12.585450 155.768997,14.544730 
	C150.352798,16.107796 146.938080,21.201416 146.952072,28.127144 
	C147.014008,58.791012 147.197556,89.454727 147.210510,120.118553 
	C147.215042,130.874130 139.057693,135.606201 130.074051,130.194000 
	C126.625702,128.116531 124.747955,124.821976 123.790085,120.943977 
	C119.403290,103.183701 114.980560,85.432297 110.585587,67.674034 
	C108.228043,58.148190 105.957054,48.600555 103.541565,39.089535 
	C101.606659,31.470810 94.529869,27.474548 86.943634,29.564987 
	C79.028275,31.746117 75.137100,38.784161 77.291740,46.461643 
	C78.998764,52.544167 80.310287,58.737335 81.814140,64.877274 
	C88.100731,90.544342 94.381683,116.212814 100.707527,141.870209 
	C101.199257,143.864700 101.393005,145.775253 100.800545,147.765762 
	C99.422165,152.396774 96.283813,155.368240 91.611740,155.843185 
	C86.507706,156.362030 82.090614,154.450089 79.373901,149.760284 
	C71.524895,136.210724 63.723286,122.633682 55.898933,109.069817 
	C53.484974,104.885117 51.231758,100.594604 48.596882,96.553398 
	C44.369862,90.070274 37.301155,88.409477 30.723934,92.071320 
	C24.159166,95.726212 22.765867,101.014137 26.359760,108.703461 
	C26.853220,109.759232 27.387430,110.799408 27.961636,111.813477 
	C38.054688,129.638153 48.328220,147.363525 58.189930,165.315155 
	C63.703793,175.352249 70.597107,184.717667 73.639351,196.028824 
	C77.152832,209.092041 82.320633,221.516129 88.199547,233.687637 
	C98.000160,253.978485 112.531563,266.542480 136.545029,263.639099 
	C152.051270,261.764343 167.408127,263.053101 182.845444,264.597107 
	C197.430374,266.055817 210.458450,261.680267 221.694580,252.106720 
	C229.870209,245.140793 235.404587,236.286179 239.931137,226.754990 
	C247.286469,211.267487 253.997116,195.507553 267.003815,183.442871 
	C275.050751,175.978775 282.296906,167.649292 289.871033,159.678329 
	C294.880524,154.406357 296.145508,145.388290 292.652557,140.331223 
	C289.671204,136.014862 283.016815,134.998230 275.649994,137.744049 
	C271.380493,139.335434 267.703461,141.904648 264.149048,144.690445 
	C252.613480,153.731628 241.007874,162.684631 229.546158,171.818314 
	C225.540344,175.010513 221.607315,175.838501 217.220322,172.900009 
	C212.953186,170.041809 213.161133,165.929901 214.372803,161.735336 
	C217.004700,152.624207 219.766724,143.550339 222.513474,134.472733 
	C231.429596,105.006378 240.425262,75.563873 249.251877,46.070755 
	C251.944489,37.073677 248.097733,31.051884 238.388412,28.241499 
	C232.132874,26.430824 225.607712,30.915905 223.278214,38.662945 
	C220.499069,47.905285 217.746796,57.155701 214.702881,67.146614 
z"/>
<path fill="#FFFFFF" opacity="1.000000" stroke="none" 
	d="
M193.700714,190.720474 
	C178.710464,195.192154 165.698212,201.705917 158.967850,216.523209 
	C157.880585,218.916916 157.563873,221.650787 156.591537,224.108978 
	C155.351486,227.243866 153.285614,229.933655 149.478363,228.790863 
	C145.701813,227.657257 144.611237,224.670746 145.568161,220.833389 
	C148.759705,208.034882 155.430588,197.694595 166.654739,190.476685 
	C176.867126,183.909393 187.876511,179.461685 199.959412,177.884781 
	C203.506973,177.421799 206.918182,177.738861 207.478897,182.255219 
	C208.021072,186.622437 205.466507,188.583252 201.420990,189.176575 
	C198.959946,189.537506 196.529846,190.109482 193.700714,190.720474 
z"/>
</svg>