<svg version="1.1" id="Layer_1" xmlns="http://www.w3.org/2000/svg" xmlns:xlink="http://www.w3.org/1999/xlink" x="0px" y="0px"
	 width="100%" viewBox="0 0 688 656" enable-background="new 0 0 688 656" xml:space="preserve">
<path fill="#FFFFFF" opacity="1.000000" stroke="none" 
	d="
M243.304169,603.667297 
	C223.482880,577.483276 210.371216,548.219360 198.967682,518.087036 
	C192.088486,499.909760 186.437454,481.319611 180.800049,462.731323 
	C179.134476,457.239471 176.091156,452.522675 173.264984,447.609375 
	C158.572968,422.067291 144.097931,396.400391 129.549896,370.775513 
	C112.291222,340.376099 95.129074,309.921356 77.733688,279.600372 
	C70.318871,266.675995 67.190483,253.023361 69.829636,238.349548 
	C71.581215,228.610748 76.077873,219.972733 83.425102,213.288727 
	C113.792442,185.662643 154.674973,192.001038 173.894867,225.130112 
	C188.851685,250.910980 203.665192,276.775055 218.510513,302.620483 
	C226.384644,316.329224 234.193100,330.075745 242.025284,343.808563 
	C243.077759,345.653961 243.926331,347.694336 247.073196,348.372223 
	C246.897507,341.362457 244.407745,335.205780 242.920929,328.892456 
	C238.239136,309.012512 233.479141,289.149963 228.582901,269.321808 
	C223.925842,250.462219 218.955338,231.679947 214.314133,212.816574 
	C209.636551,193.805237 205.221634,174.729401 200.639297,155.694427 
	C197.880875,144.235977 194.802505,132.850281 192.257385,121.345711 
	C187.743530,100.941933 193.332565,83.040146 208.450684,69.137840 
	C228.873032,50.357876 263.266693,46.417591 286.408112,67.431076 
	C295.008301,75.240479 300.688385,84.766441 303.424042,96.194427 
	C307.826752,114.586388 312.718872,132.860565 317.246155,151.223480 
	C322.089722,170.869324 326.645538,190.586273 331.516571,210.225159 
	C337.952423,236.172913 344.581451,262.072723 351.093079,288.001801 
	C351.505005,289.642029 351.632507,291.348389 353.769135,291.772156 
	C355.417023,290.759491 354.774658,289.097382 354.774780,287.723175 
	C354.779388,230.232224 355.019470,172.738831 354.508728,115.252151 
	C354.392029,102.119293 353.819275,88.955711 353.898010,75.807701 
	C354.002838,58.303051 360.003021,43.186207 373.657074,31.774113 
	C388.339569,19.502419 405.404602,16.118279 423.804565,20.130215 
	C447.090607,25.207504 461.095917,40.043655 466.929596,62.926224 
	C468.350403,68.499435 468.062897,74.180458 468.062592,79.833893 
	C468.058838,148.323792 468.021820,216.813690 467.994019,285.303589 
	C467.993134,287.468597 467.903137,289.641235 468.816559,291.694336 
	C469.439270,293.094025 470.066528,294.574371 471.870483,294.578247 
	C473.719910,294.582245 474.267365,293.137817 474.719971,291.622620 
	C477.383179,282.707733 480.111450,273.812134 482.758820,264.892578 
	C490.932190,237.354706 499.141632,209.827286 507.217163,182.260696 
	C514.178345,158.498047 520.810852,134.637939 527.925476,110.921967 
	C530.783691,101.394287 532.730042,91.507027 537.237854,82.547501 
	C546.962585,63.219017 562.688171,52.255241 584.368713,51.746807 
	C608.189453,51.188179 627.646667,60.130707 639.397400,81.899994 
	C647.168823,96.297409 646.993225,111.569046 642.572510,127.001945 
	C636.715759,147.448486 630.952026,167.921722 625.067200,188.360123 
	C619.779358,206.725128 614.409912,225.066833 609.025635,243.403870 
	C602.470276,265.729034 596.587341,288.287354 589.048279,310.276764 
	C582.943359,328.083191 586.996399,344.718719 591.457703,361.613983 
	C594.255981,372.211029 597.186401,382.797791 600.710510,393.167297 
	C602.287842,397.808289 605.350647,401.975830 607.941895,406.234985 
	C615.924133,419.355225 620.131897,433.813965 623.519104,448.633972 
	C626.275757,460.695007 627.410767,472.911224 627.899414,485.214935 
	C628.417908,498.269348 624.907654,510.428436 620.310120,522.558350 
	C612.390503,543.452881 604.216858,564.188782 592.063110,583.051758 
	C570.651001,616.283997 541.521362,639.156189 502.914612,649.517761 
	C484.379242,654.492371 465.689362,654.403687 446.965729,652.260437 
	C421.686340,649.366760 396.439117,649.841187 371.138306,651.353149 
	C355.010925,652.316833 338.949402,652.475220 322.785583,650.631409 
	C303.073486,648.382812 285.281219,641.811523 269.401703,630.164368 
	C259.421143,622.843872 250.814011,614.008484 243.304169,603.667297 
M401.917816,625.302124 
	C415.083527,625.007263 428.193512,625.754944 441.280670,627.198853 
	C449.875275,628.147095 458.510620,629.624268 467.107605,629.497620 
	C504.385254,628.948975 534.909912,613.739502 559.258057,585.737488 
	C574.697510,567.981018 584.538391,547.097778 592.890503,525.398071 
	C596.232178,516.715820 600.599121,508.199829 602.367188,499.189789 
	C605.646973,482.475311 602.927185,465.655182 599.067322,449.311768 
	C594.935120,431.815430 586.980835,415.868195 575.829224,401.642212 
	C561.771118,383.708282 544.433533,371.010559 521.252991,367.828461 
	C508.741760,366.110992 496.208405,364.554138 483.682007,362.948212 
	C461.741669,360.135376 439.829987,357.058868 417.846008,354.641235 
	C404.079468,353.127289 391.355835,356.989227 383.557800,368.818634 
	C368.681061,391.386200 380.254944,416.140381 406.338806,422.321136 
	C423.571777,426.404602 441.347290,428.253235 458.920074,430.828247 
	C470.556641,432.533417 475.234589,441.620880 469.371582,451.831299 
	C468.874176,452.697510 468.351501,453.549194 467.838989,454.406677 
	C451.214172,482.220917 443.081543,512.314941 443.653900,544.728088 
	C443.781738,551.968140 438.901611,557.112183 431.727753,557.103027 
	C424.100708,557.093384 419.376709,551.718018 418.941498,542.877197 
	C418.561890,535.166687 419.966736,527.623535 420.609924,520.002258 
	C422.034454,503.122070 426.156128,486.935944 432.274689,471.218842 
	C434.544495,465.388214 437.157684,459.691284 439.550293,454.083374 
	C437.264832,451.674377 434.571930,451.998413 432.203247,451.486664 
	C418.750061,448.580017 404.710663,448.432281 391.730347,443.356903 
	C358.884766,430.514069 344.049866,397.633118 358.445831,363.589203 
	C368.506378,339.797760 393.586945,328.515381 417.607056,330.091370 
	C431.356659,330.993500 445.024353,333.189026 458.717865,334.891235 
	C477.530731,337.229858 496.328217,339.692261 515.141602,342.026917 
	C529.737915,343.838257 543.992737,346.768860 557.117310,353.827667 
	C559.381042,355.045105 561.424622,356.871613 564.102783,357.185547 
	C565.236755,355.282532 564.335938,353.705475 563.985229,352.134644 
	C561.357910,340.367249 559.261108,328.243317 562.241394,316.571564 
	C567.701660,295.187805 574.591614,274.170349 580.828247,252.983322 
	C587.117737,231.616776 593.395752,210.246490 599.572510,188.847168 
	C606.205505,165.867447 612.649475,142.833008 619.318848,119.863968 
	C621.273254,113.133308 621.918518,106.238678 620.226013,99.627182 
	C616.672485,85.745934 604.206604,76.762589 588.928040,76.122803 
	C574.539856,75.520302 563.382629,82.742905 558.047852,96.676468 
	C555.441650,103.483360 553.487732,110.549797 551.429443,117.554825 
	C545.668335,137.161774 540.036194,156.806595 534.297058,176.420029 
	C528.929321,194.764008 523.480713,213.084290 518.084106,231.419830 
	C511.137939,255.020096 504.372894,278.675293 497.209259,302.209259 
	C492.916290,316.312439 478.523407,323.447418 464.539703,318.964417 
	C451.625610,314.824249 443.703552,303.399445 443.707062,288.744995 
	C443.724182,217.585724 443.594940,146.425690 443.916077,75.267731 
	C444.000092,56.658047 427.385681,37.974091 402.202667,44.124855 
	C387.083710,47.817535 378.293152,59.452164 378.211670,75.089096 
	C378.091888,98.079399 377.806549,121.066574 378.484467,144.065369 
	C379.142029,166.373978 379.006378,188.707870 379.086761,211.031128 
	C379.190582,239.861069 379.275787,268.691986 379.141296,297.521423 
	C379.080231,310.611145 369.217651,319.640472 356.167816,319.147858 
	C343.028137,318.651794 330.437561,307.989197 327.225708,294.683899 
	C319.942474,264.512726 312.709778,234.329102 305.325470,204.182648 
	C298.961731,178.202591 292.409760,152.268631 285.955566,126.310684 
	C283.790131,117.601631 281.701141,108.873512 279.521698,100.168022 
	C275.269623,83.183708 257.344147,74.437958 238.538574,79.746971 
	C227.688385,82.810104 220.551132,89.479019 216.801727,99.925026 
	C213.954041,107.858772 215.817245,115.472893 217.827972,123.381386 
	C225.238556,152.528244 232.065491,181.823090 239.198700,211.041077 
	C242.971115,226.493057 246.995438,241.883514 250.770660,257.334808 
	C253.923935,270.240570 256.794952,283.215210 259.945282,296.121704 
	C263.883087,312.254456 268.246857,328.287933 271.917816,344.479645 
	C274.635040,356.464752 267.468231,368.544373 256.182922,372.357880 
	C244.458191,376.319885 229.647064,371.054749 223.473618,360.386566 
	C199.622971,319.170776 175.841873,277.914642 152.112762,236.628754 
	C143.011154,220.792984 125.559570,216.361603 109.562569,224.738190 
	C90.707733,234.611191 90.580513,252.352066 98.691116,266.694183 
	C109.500542,285.808685 120.399612,304.872437 131.220184,323.980652 
	C149.678055,356.575745 168.218109,389.125214 186.477402,421.831299 
	C192.141159,431.976227 199.514679,441.205536 203.146378,452.462433 
	C211.004211,476.818726 218.145126,501.401855 228.083893,525.067810 
	C237.200073,546.775024 247.703964,567.608582 261.325012,586.908447 
	C279.769653,613.042847 305.101440,626.100830 336.613831,627.678040 
	C358.115143,628.754272 379.515259,625.692261 401.917816,625.302124 
z"/>
</svg>