<svg version="1.1" id="Layer_1" xmlns="http://www.w3.org/2000/svg" xmlns:xlink="http://www.w3.org/1999/xlink" x="0px" y="0px"
	 width="100%" viewBox="0 0 416 576" enable-background="new 0 0 416 576" xml:space="preserve">
<path fill="#FFFFFF" opacity="1.000000" stroke="none" 
	d="
M417.000000,434.531342 
	C414.030029,448.958405 412.298279,463.167786 408.306580,476.921661 
	C401.618317,499.966614 392.967651,521.974121 376.728394,540.289795 
	C360.200684,558.930847 339.289978,569.252258 315.040924,573.301331 
	C291.786163,577.184326 268.561707,575.708191 245.473572,571.939270 
	C226.542282,568.848999 207.552368,568.740234 188.819244,571.904907 
	C139.656036,580.210205 98.598068,564.788086 63.641266,530.703247 
	C38.668415,506.353302 22.865164,476.177887 10.197620,444.206024 
	C4.676660,430.271576 4.898550,415.637115 6.307496,400.899597 
	C7.916842,384.065948 11.785239,367.820618 17.282566,351.879608 
	C23.093451,335.029327 32.728302,320.984772 47.011745,310.215027 
	C48.607990,309.011444 50.067421,307.603790 51.746838,306.537292 
	C57.444908,302.918793 59.305805,298.250916 59.265583,291.143219 
	C58.879868,222.984589 58.906651,154.822540 59.148823,86.662659 
	C59.181877,77.358734 59.897404,68.015076 59.581364,58.708282 
	C58.807415,35.916702 70.120750,20.196358 89.030495,9.749107 
	C108.384407,-0.943534 143.859146,1.271775 161.121780,22.288687 
	C171.768097,35.250343 175.730530,50.027290 174.836609,66.442970 
	C174.664780,69.598404 174.371353,72.754593 174.368134,75.910683 
	C174.333923,109.407761 174.338303,142.904907 174.371735,176.401978 
	C174.373505,178.178268 173.873337,180.054886 175.333252,182.396698 
	C207.759277,167.477753 235.773682,171.538239 256.711578,203.895020 
	C272.048492,191.937454 289.014923,189.271896 307.365356,193.312759 
	C326.643951,197.558044 337.973602,210.393448 345.131989,228.221283 
	C370.132965,216.371262 394.195343,214.366364 416.766266,233.762695 
	C417.000000,300.687561 417.000000,367.375122 417.000000,434.531342 
M392.356110,445.950104 
	C394.128357,433.787262 396.096985,421.648621 397.601807,409.452789 
	C398.561157,401.677795 398.252075,401.628845 390.730896,402.323944 
	C389.241638,402.461578 387.767853,402.761597 386.279510,402.914459 
	C364.716797,405.129028 346.900269,398.539185 333.907379,380.614227 
	C333.060638,379.446075 332.592438,377.845123 330.358215,377.611816 
	C316.954803,389.471100 300.979156,393.141571 283.204620,390.605194 
	C264.922516,387.996399 252.350723,377.577118 243.685867,361.845093 
	C242.592865,362.268768 241.900314,362.387604 241.388870,362.757141 
	C223.921921,375.377533 205.071381,377.365326 185.026077,370.104309 
	C183.257736,369.463715 181.381119,368.821869 179.665619,369.458618 
	C172.375427,372.164429 165.319916,375.402557 158.460648,379.117249 
	C159.059906,381.580658 160.704468,382.537170 162.076065,383.672394 
	C167.859161,388.459076 173.423080,393.487946 178.577225,398.943146 
	C194.162003,415.438385 205.850830,434.206970 211.458908,456.394653 
	C213.133469,463.019836 209.976013,468.613495 204.172913,470.223511 
	C197.806656,471.989777 192.401367,469.067841 190.041946,462.517426 
	C188.463821,458.136169 187.256912,453.598541 185.390518,449.347473 
	C173.921432,423.224548 154.356171,404.352203 130.831528,389.151154 
	C125.954514,385.999695 121.941994,382.696014 122.659271,376.112610 
	C123.333138,369.927673 127.944458,367.726624 132.755981,365.562988 
	C144.755676,360.167175 156.725616,354.705261 168.716660,349.290161 
	C172.696960,347.492645 176.456284,345.273987 179.631195,342.319794 
	C188.712173,333.870148 194.026505,323.946198 190.398041,311.127594 
	C186.962921,298.991974 179.772858,290.753052 166.793289,288.083038 
	C157.433594,286.157684 148.989395,288.534485 140.627838,292.098877 
	C117.956329,301.763336 95.335823,311.548035 72.632103,321.135925 
	C63.481174,325.000397 56.217449,331.345978 49.942509,338.657837 
	C41.172672,348.876892 37.170269,361.498016 33.963406,374.341492 
	C29.969749,390.336029 26.648540,406.427856 28.273859,423.067444 
	C29.312880,433.704620 33.890636,443.203308 38.302212,452.711365 
	C50.752937,479.545776 65.825935,504.589050 89.192764,523.506287 
	C111.176239,541.303528 135.958267,552.342773 164.794540,551.518372 
	C175.895172,551.201050 186.945999,549.270691 198.028763,548.168274 
	C211.966888,546.781738 225.898178,546.145813 239.843689,548.310120 
	C261.897919,551.732849 283.948120,554.687866 306.382172,551.709473 
	C332.806976,548.201172 353.964996,536.431580 368.459198,513.640625 
	C381.477997,493.169525 387.739746,470.306580 392.356110,445.950104 
M81.210594,206.499985 
	C81.210938,208.498764 81.211052,210.497543 81.211662,212.496323 
	C81.219208,237.149628 81.207260,261.802979 81.249458,286.456207 
	C81.258934,291.992798 81.925323,292.433136 86.961563,290.456268 
	C90.524658,289.057617 94.006783,287.453644 97.561920,286.033600 
	C113.320061,279.739227 128.357742,271.663849 144.693848,266.810059 
	C152.589218,264.464172 152.649094,264.594452 152.650452,256.328705 
	C152.659943,198.694473 152.662003,141.060257 152.660095,83.426033 
	C152.659882,77.124596 152.242142,70.797371 152.670731,64.526718 
	C153.807159,47.899471 144.891632,33.314415 130.150070,28.352097 
	C113.250610,22.663382 95.569130,28.098408 86.747307,41.671921 
	C82.204613,48.661415 81.146889,56.409138 81.163940,64.576309 
	C81.262054,111.550690 81.211319,158.525391 81.210594,206.499985 
M264.573853,352.843048 
	C269.405731,361.638184 277.031799,366.454285 286.698059,368.332306 
	C307.184875,372.312653 324.635651,358.081635 324.650146,337.372681 
	C324.671356,307.051422 324.644073,276.730103 324.713226,246.408981 
	C324.722473,242.364578 324.153534,238.443039 323.023987,234.612839 
	C318.950836,220.801071 305.589111,212.882065 288.676697,214.157364 
	C273.335968,215.314133 261.296509,227.927673 261.257690,243.220078 
	C261.176880,275.040527 261.271820,306.861359 261.223389,338.681946 
	C261.216125,343.447723 262.068359,347.935791 264.573853,352.843048 
M410.822601,293.500000 
	C410.550415,284.351898 412.010681,275.056580 410.125702,266.076843 
	C406.468903,248.656525 392.219940,239.962570 372.546997,242.374054 
	C356.546936,244.335327 346.557770,256.911652 346.809418,274.325104 
	C347.088654,293.648529 347.155823,312.975677 347.198608,332.301453 
	C347.214417,339.447021 346.385132,346.588379 347.313721,353.738068 
	C349.909454,373.724457 369.995392,386.337250 389.096344,379.934174 
	C401.743744,375.694458 410.422852,364.378662 410.619629,350.986877 
	C410.896332,332.160980 410.773834,313.329254 410.822601,293.500000 
M174.346222,230.795013 
	C174.346481,240.282974 174.567337,249.778152 174.256500,259.255920 
	C174.094177,264.204956 175.884491,267.176697 180.540039,268.612274 
	C181.802948,269.001709 182.963242,269.711578 184.199249,270.202332 
	C209.755066,280.348877 224.012131,319.959869 206.719833,345.274231 
	C205.746765,346.698730 204.190414,348.033722 204.786774,350.115448 
	C206.466675,351.606262 208.457245,351.734772 210.471619,351.591705 
	C226.290985,350.468384 238.629211,337.305969 238.654785,321.384308 
	C238.705032,290.090790 238.700821,258.797119 238.667465,227.503571 
	C238.653458,214.358917 231.680450,203.664429 220.365067,199.172348 
	C207.328201,193.996857 192.092972,196.969681 183.286453,206.131012 
	C176.858215,212.818222 175.009766,221.080383 174.346222,230.795013 
z"/>
</svg>