<svg version="1.1" id="Layer_1" xmlns="http://www.w3.org/2000/svg" xmlns:xlink="http://www.w3.org/1999/xlink" x="0px" y="0px"
	 width="100%" viewBox="0 0 400 512" enable-background="new 0 0 400 512" xml:space="preserve">
<path fill="#FFFFFF" opacity="1.000000" stroke="none" 
	d="
M127.468658,513.000000 
	C120.800537,510.661926 114.505371,508.547760 108.418449,505.946350 
	C84.320641,495.647430 66.166382,478.529785 52.285683,456.570038 
	C40.529510,437.971375 32.653713,417.629517 26.036917,396.818512 
	C21.207874,381.630310 24.000103,366.190277 26.086285,350.829285 
	C28.516041,332.938416 36.412163,317.260010 45.006863,301.779968 
	C52.235126,288.761017 57.233696,274.821503 61.433556,260.579468 
	C62.382488,257.361542 62.625854,254.256332 61.863663,250.806519 
	C49.211201,193.539536 36.836994,136.210922 24.109249,78.960838 
	C19.795925,59.559265 21.774933,41.681080 37.360878,28.179476 
	C67.946442,1.684189 112.576439,14.468020 121.506294,50.704014 
	C131.403946,90.867165 142.003281,130.857437 152.310043,170.919662 
	C153.635223,176.070663 154.954773,181.226181 156.453674,186.327667 
	C156.932846,187.958511 156.947266,190.002106 159.223373,191.093445 
	C162.000504,185.499115 163.113876,179.477158 164.652618,173.614288 
	C175.241287,133.269516 184.916351,92.698151 194.795471,52.176517 
	C200.376862,29.283140 215.835464,15.001785 239.235046,13.489052 
	C265.217712,11.809327 288.244293,24.125345 293.823486,52.479317 
	C295.803833,62.543674 293.282776,72.348801 290.906708,82.047142 
	C280.192200,125.779892 269.383606,169.489594 258.646362,213.216797 
	C258.184937,215.096008 257.481323,217.047379 258.542816,219.450058 
	C266.670166,218.202515 274.817291,217.541641 283.066956,219.537949 
	C304.951355,224.833710 319.586273,241.688431 321.262115,264.052368 
	C321.692139,269.791138 322.449799,270.378204 327.896332,269.370422 
	C348.352356,265.585510 380.616394,276.069824 386.639404,308.035919 
	C388.283722,316.762787 387.387299,325.262024 384.489227,333.578735 
	C381.751404,341.435608 379.286713,349.418488 376.018921,357.053619 
	C368.347290,374.978210 366.858337,394.474548 361.301849,412.919830 
	C354.253754,436.316742 345.699738,458.990387 329.886505,478.166382 
	C316.239105,494.715912 299.315063,506.199677 278.378510,511.492249 
	C277.419128,511.734741 276.521088,512.219849 275.297241,512.795959 
	C225.979111,513.000000 176.958206,513.000000 127.468658,513.000000 
M193.578140,396.087830 
	C195.306198,406.106476 196.560104,416.188293 195.602310,426.351074 
	C195.002777,432.712402 190.225769,436.994507 184.888947,436.730713 
	C179.114349,436.445282 175.000488,431.807404 174.693588,425.214508 
	C174.647156,424.216888 174.658890,423.215424 174.674210,422.216187 
	C174.951462,404.136200 170.891068,386.939301 164.310165,370.209991 
	C161.304413,362.569092 156.845261,355.721954 153.128662,348.472839 
	C149.222000,340.852997 151.828583,335.048584 160.012604,332.657532 
	C163.185043,331.730652 166.495438,331.256409 169.759079,330.664673 
	C182.505814,328.353668 195.455627,327.083099 207.993546,323.722534 
	C222.227921,319.907227 229.936462,308.508026 228.686844,293.774384 
	C227.602539,280.989990 217.188614,271.443298 203.089188,270.178284 
	C195.374115,269.486084 187.815445,270.863464 180.237198,271.782898 
	C160.281418,274.203888 140.349564,276.822052 120.406807,279.350800 
	C104.787994,281.331299 90.066673,285.486145 78.164642,296.586212 
	C55.548389,317.678589 45.723053,344.321167 44.381432,374.604401 
	C44.123363,380.429535 44.147507,386.458038 46.223225,391.872528 
	C52.472752,408.174347 58.467827,424.594849 67.173431,439.861115 
	C88.366386,477.025452 127.183884,501.364532 176.264175,493.059753 
	C188.164795,491.046082 200.368027,490.775330 212.581116,491.427979 
	C225.370712,492.111450 238.035080,494.241882 250.897812,494.084625 
	C267.717865,493.879028 283.106934,489.423065 296.822998,479.682587 
	C317.645996,464.895020 328.593384,443.454742 336.498169,420.035706 
	C336.571533,419.818390 336.249451,419.467590 336.081451,419.115021 
	C335.628174,419.115021 335.114655,418.988098 334.695251,419.133179 
	C312.301544,426.879486 281.413483,415.062408 272.528168,390.818451 
	C270.903473,386.385345 268.417236,387.798431 265.498596,389.102448 
	C248.409775,396.737732 232.052933,394.758270 216.656693,384.660034 
	C205.859344,377.578156 199.463242,367.307831 196.551758,354.743042 
	C195.978760,352.270233 196.465424,348.183380 192.316208,348.578613 
	C188.146561,348.975800 183.759750,349.161621 179.481659,351.527008 
	C185.640747,365.761932 191.031082,380.038269 193.578140,396.087830 
M52.448982,109.193695 
	C52.645515,109.829979 52.889576,110.455826 53.031784,111.104027 
	C61.394543,149.222000 70.067047,187.276382 77.931679,225.496948 
	C80.688622,238.895142 87.118698,252.178070 81.917175,266.447723 
	C81.843544,266.649719 82.181297,267.001648 82.451180,267.523743 
	C83.172256,267.364166 84.030243,267.350311 84.712624,266.997192 
	C97.283157,260.491516 111.090492,259.337433 124.781311,257.621460 
	C142.089066,255.452179 159.391632,253.238586 176.683884,250.949310 
	C191.381546,249.003510 206.079819,246.466202 220.432556,252.733597 
	C223.579590,254.107788 225.144272,252.215607 226.235428,249.752274 
	C228.526932,244.579132 230.480011,239.300873 231.834015,233.768448 
	C245.263870,178.894562 258.769135,124.039124 272.280212,69.185150 
	C273.834747,62.873859 273.895203,56.690098 271.219879,50.652012 
	C266.370972,39.708366 253.748093,33.116291 240.122070,34.385841 
	C228.209656,35.495731 218.422302,44.482582 215.403015,57.160522 
	C205.352066,99.364624 195.534988,141.628906 184.162659,183.502853 
	C179.936569,199.063721 175.806717,214.699600 168.946518,229.397324 
	C166.879379,233.826050 163.920700,237.317825 158.425735,237.280075 
	C153.024765,237.242950 150.694305,233.506500 148.643723,229.290527 
	C144.840958,221.471985 142.111710,213.265869 139.746811,204.936661 
	C125.943176,156.319931 113.822487,107.264153 101.531677,58.252632 
	C100.231071,53.066261 98.454842,48.135208 94.668007,44.036278 
	C81.408279,29.683704 58.989086,35.493652 49.907848,45.682625 
	C44.185429,52.103073 42.027382,59.627777 43.657345,67.924156 
	C46.314545,81.449120 49.423882,94.885246 52.448982,109.193695 
M289.563782,245.903870 
	C280.356873,239.705902 270.694550,236.777603 259.970856,241.902039 
	C253.031738,245.217972 248.550735,250.609634 245.538925,257.723785 
	C242.562988,264.753204 242.635162,270.796478 245.982178,278.033447 
	C257.114410,302.103668 247.174118,328.408173 223.222672,340.564850 
	C216.419708,344.017761 215.725250,345.747772 218.158051,353.181274 
	C221.843628,364.442688 232.302002,371.957977 245.213013,372.622711 
	C255.504669,373.152588 266.060333,366.164398 270.112549,355.066864 
	C279.758057,328.651245 289.227417,302.165527 298.287354,275.544586 
	C302.095551,264.354889 299.759521,254.145081 289.563782,245.903870 
M343.265076,384.695190 
	C350.391388,365.161133 357.572937,345.646881 364.584473,326.071716 
	C365.635559,323.137238 366.384277,319.924347 366.427063,316.828552 
	C366.603638,304.051544 356.442322,293.193787 342.139587,290.479034 
	C328.831604,287.953094 317.819611,293.439240 313.141083,305.804535 
	C305.782654,325.252869 298.890808,344.878632 291.901794,364.465118 
	C290.323029,368.889526 289.728485,373.431000 290.959290,378.178314 
	C294.179169,390.597870 302.550537,397.353210 314.715454,399.499817 
	C327.116669,401.688141 335.749908,397.099854 343.265076,384.695190 
z"/>
</svg>