<svg version="1.1" id="Layer_1" xmlns="http://www.w3.org/2000/svg" xmlns:xlink="http://www.w3.org/1999/xlink" x="0px" y="0px"
	 width="100%" viewBox="0 0 672 576" enable-background="new 0 0 672 576" xml:space="preserve">
<path fill="#FFFFFF" opacity="1.000000" stroke="none" 
	d="
M310.689575,21.637314 
	C343.375702,-3.505086 387.663544,11.842175 396.843445,51.167233 
	C398.225586,57.088051 397.460541,63.073200 397.410919,69.056152 
	C397.198059,94.719246 397.128448,120.383965 397.115234,146.048141 
	C397.099457,176.712143 397.194794,207.376205 397.241058,238.040237 
	C397.245026,240.679825 397.241608,243.319412 397.628601,246.019608 
	C400.702789,238.860443 402.218719,231.289978 404.093292,223.837601 
	C416.013885,176.446747 427.759033,129.011444 439.801666,81.651733 
	C445.173218,60.527237 457.056519,44.981976 479.749725,41.297024 
	C517.239746,35.209335 545.440369,61.349934 543.162109,95.621796 
	C542.312195,108.406555 537.777161,120.622314 534.740723,133.051514 
	C521.802002,186.014206 508.757355,238.951019 495.756073,291.898438 
	C495.246368,293.974243 494.921478,296.062714 495.929962,299.255646 
	C500.852203,290.673340 505.340881,282.797821 509.875824,274.949005 
	C525.793335,247.400146 541.151306,219.533203 557.916016,192.467819 
	C573.813110,166.802994 599.065369,162.371078 624.815430,173.723160 
	C642.968628,181.726105 651.407776,196.847534 652.982605,215.905212 
	C653.661743,224.123352 650.815063,232.030090 647.018799,239.363541 
	C633.304871,265.855499 617.873474,291.388428 603.292175,317.396484 
	C589.117004,342.680237 574.880859,367.929779 560.661987,393.189026 
	C551.601196,409.285126 546.637512,426.879578 541.118713,444.372314 
	C530.634583,477.603760 515.762817,508.817596 494.420319,536.611450 
	C487.600159,545.493164 479.294861,552.994812 470.529358,559.968933 
	C464.425964,564.824951 457.188904,565.958801 449.814484,565.966003 
	C379.986755,566.034485 310.158661,565.871521 240.331299,566.037476 
	C225.542587,566.072571 215.092377,557.844238 204.546280,549.326538 
	C180.532394,529.931519 165.758942,503.956268 152.866241,476.659241 
	C146.823395,463.865021 141.852020,450.581207 134.742874,438.269806 
	C126.529495,424.046051 114.238640,413.348053 103.348404,401.469635 
	C88.937965,385.751648 73.942551,370.571625 59.326725,355.039795 
	C50.520283,345.681427 44.167107,335.366669 45.730316,321.548492 
	C46.493481,314.802429 46.443714,307.836060 45.732578,301.077728 
	C44.142433,285.965698 52.554535,276.848633 64.081558,269.984955 
	C78.370132,261.476959 93.723068,262.333160 109.044220,267.004822 
	C126.164993,272.225250 140.056595,282.988068 153.669617,293.991913 
	C170.107880,307.279449 186.710190,320.331757 204.132843,332.987549 
	C205.088943,330.230438 203.810898,328.112091 203.178696,326.061066 
	C181.413666,255.449020 160.748566,184.500320 138.283234,114.102188 
	C134.195557,101.292969 131.639633,88.284203 136.227020,74.965454 
	C143.095474,55.024017 157.158340,43.383011 177.724091,39.746918 
	C193.135803,37.022068 207.588852,39.517506 220.101517,49.612194 
	C229.318146,57.047798 233.994553,67.271347 237.294754,78.287483 
	C253.290543,131.681564 269.276886,185.078461 285.294373,238.466049 
	C286.755493,243.336136 288.413300,248.147232 290.082642,253.303482 
	C293.247192,251.121292 292.760284,248.285172 292.777252,245.765808 
	C292.860291,233.434036 292.821014,221.101456 292.823608,208.769150 
	C292.833771,160.606262 292.834869,112.443359 292.859009,64.280479 
	C292.865417,51.488659 295.510376,39.459572 303.633728,29.178596 
	C305.687317,26.579527 308.150665,24.304203 310.689575,21.637314 
M217.911255,528.579102 
	C220.410248,530.521301 222.857834,532.534180 225.416656,534.394104 
	C240.800308,545.575928 257.767395,552.944824 276.821747,554.616760 
	C293.160645,556.050537 309.380615,553.448120 325.641357,552.325989 
	C343.908997,551.065369 362.150238,549.981873 380.512878,551.353088 
	C393.058685,552.290039 405.493683,554.377136 418.305237,553.005249 
	C441.145569,550.559143 459.357300,540.158875 474.149384,523.232300 
	C484.089874,511.857391 491.187378,498.641296 497.518005,484.980408 
	C507.539856,463.354370 516.940613,441.486328 523.374756,418.484955 
	C526.982727,405.586975 531.711365,393.173126 538.281433,381.514252 
	C554.147949,353.358093 570.127014,325.265289 586.066040,297.149963 
	C597.897217,276.280518 609.805725,255.454422 621.533081,234.526810 
	C625.380432,227.661133 628.675354,220.393875 627.281494,212.243805 
	C624.893677,198.282822 608.374573,191.779953 598.298035,192.885071 
	C589.255615,193.876770 582.604736,198.840103 578.042419,206.681976 
	C567.152649,225.399658 556.206848,244.084702 545.334900,262.812683 
	C535.214966,280.245361 525.158142,297.714661 515.079773,315.171448 
	C510.479858,323.138977 503.990295,328.317932 494.564270,329.313080 
	C475.348206,331.341797 465.237946,314.409241 469.164398,298.738831 
	C485.445496,233.761917 501.155090,168.641846 517.091553,103.578499 
	C518.165100,99.195770 518.908203,94.804878 518.677307,90.260910 
	C518.143188,79.750587 511.008057,71.136673 499.453796,67.187401 
	C488.782654,63.539974 477.760284,66.230301 470.991913,73.501396 
	C464.698242,80.262535 463.363800,88.842529 461.297119,97.199570 
	C448.322021,149.667603 435.390808,202.146484 422.423798,254.616516 
	C420.420959,262.720947 416.985229,269.930878 409.884705,274.968079 
	C394.114410,286.155731 376.997955,280.308868 373.145874,262.210358 
	C372.461456,258.994751 372.526855,255.583847 372.528107,252.263229 
	C372.552032,188.934677 372.607605,125.606117 372.710266,62.277645 
	C372.714905,59.402729 372.231628,56.651001 371.593475,53.899097 
	C368.422150,40.222988 357.204315,33.087379 341.758789,34.111786 
	C330.129456,34.883095 316.641296,47.722092 318.109589,58.886021 
	C318.603363,62.640450 317.945465,66.535873 317.949829,70.366699 
	C318.013580,126.529457 318.086121,182.692215 318.203857,238.854874 
	C318.215393,244.363693 317.953217,249.841812 317.291534,255.303314 
	C315.800110,267.613068 307.576691,277.897125 297.345551,280.285339 
	C281.404114,284.006439 270.651245,277.295563 265.606171,260.260101 
	C248.921494,203.921692 232.307327,147.562393 215.626495,91.222847 
	C214.164169,86.283829 212.834091,81.283188 210.199951,76.759743 
	C204.482803,66.942055 194.927811,61.865273 184.884521,63.402027 
	C172.028320,65.369186 162.194977,73.715965 159.792267,84.761627 
	C158.473297,90.825188 159.729523,96.678368 161.477554,102.451057 
	C174.690582,146.085815 187.960480,189.703384 201.141708,233.347748 
	C211.771179,268.543030 222.320724,303.762543 232.851486,338.987488 
	C234.135010,343.280853 235.521774,347.679596 234.995834,352.202820 
	C233.536301,364.755035 219.549683,371.984985 207.605591,366.485901 
	C203.016785,364.373199 199.214584,361.080536 195.284241,358.000702 
	C172.332520,340.015869 149.455795,321.934753 126.428200,304.047729 
	C116.603058,296.415894 105.875923,290.520050 93.284012,288.670959 
	C77.163490,286.303680 65.654526,296.298553 66.423050,312.574768 
	C66.868790,322.014923 70.589531,330.377075 77.073746,337.302277 
	C92.332382,353.598724 107.120674,370.350555 123.393364,385.673553 
	C135.124222,396.719818 144.848190,409.331604 153.208923,423.070374 
	C163.368530,439.765076 171.339066,457.565216 179.730133,475.151001 
	C189.204895,495.007996 200.486496,513.545410 217.911255,528.579102 
z"/>
<path fill="#FFFFFF" opacity="1.000000" stroke="none" 
	d="
M276.800415,402.286652 
	C270.225098,400.899384 264.023926,399.706177 257.880066,398.268066 
	C253.434845,397.227600 249.293060,395.687469 247.551025,390.705536 
	C243.904282,380.276428 250.470871,372.393127 261.864716,373.951050 
	C274.419189,375.667633 286.775360,378.471405 298.540771,383.202026 
	C316.043060,390.239349 332.823151,398.664215 346.820831,411.674805 
	C363.110229,426.815521 372.681519,445.712250 377.129974,467.283875 
	C378.392426,473.405792 374.950043,478.485138 369.099030,480.581665 
	C363.178528,482.703064 358.515900,481.026367 354.918671,475.624023 
	C353.033020,472.792175 351.992065,469.612091 351.184387,466.408905 
	C345.449158,443.663208 331.146576,427.826996 311.264862,416.382507 
	C300.523285,410.199249 288.998230,405.964722 276.800415,402.286652 
z"/>
</svg>