<svg version="1.1" id="Layer_1" xmlns="http://www.w3.org/2000/svg" xmlns:xlink="http://www.w3.org/1999/xlink" x="0px" y="0px" width="100%" viewBox="0 0 512 656" enable-background="new 0 0 512 656" xml:space="preserve" transform="matrix(-1,0,0,1,0,0)">
<path fill="#FFFFFF" opacity="1.000000" stroke="none" d="
M513.000000,126.531342 
	C509.399780,139.097870 505.773987,151.188202 502.204590,163.295166 
	C494.174652,190.531723 486.173248,217.776688 478.159058,245.017883 
	C470.323547,271.651886 462.473999,298.281830 454.662170,324.922821 
	C453.317871,329.507233 455.853241,333.377136 457.367828,337.342102 
	C466.456055,361.134033 477.142670,384.113586 490.013824,406.182465 
	C501.526489,425.922089 505.279114,448.113953 507.197174,470.685242 
	C508.210327,482.608124 508.060974,494.420746 504.550720,505.787292 
	C501.172638,516.725952 496.700043,527.339111 492.458344,537.995789 
	C483.476776,560.560730 471.983246,581.688232 455.852753,600.033691 
	C436.048157,622.557678 411.432709,637.251648 382.599884,645.312561 
	C362.099152,651.044128 341.538086,650.397400 320.724915,647.739258 
	C302.046387,645.353760 283.340881,644.809814 264.452240,646.692688 
	C246.133789,648.518738 227.636581,650.776428 209.226608,647.065796 
	C184.094528,642.000305 162.171783,630.799500 144.106857,612.432556 
	C122.006271,589.962402 109.136375,562.447327 100.732170,532.543030 
	C94.412628,510.056427 91.503372,487.040619 89.798615,463.788300 
	C89.156242,455.026520 88.443497,446.238434 87.462822,437.473999 
	C84.730499,413.054840 105.859467,373.766113 142.866989,372.759949 
	C144.967178,372.702881 147.199860,373.239105 149.776367,371.575592 
	C147.958206,364.749939 146.199570,357.727356 144.212204,350.770111 
	C139.330032,333.678802 134.382355,316.605957 129.386139,299.547607 
	C124.434052,282.639832 119.359451,265.767975 114.394432,248.863953 
	C107.793282,226.389526 101.232544,203.903214 94.680237,181.414474 
	C89.521126,163.707474 83.393547,146.203842 79.558792,128.212875 
	C76.019836,111.609642 80.324844,95.796524 91.037086,82.243523 
	C100.233154,70.608757 112.906532,65.206253 126.950356,61.379120 
	C153.336990,54.188396 183.699646,71.651566 192.214294,96.399429 
	C196.207001,108.004250 199.552216,119.836456 203.024384,131.614685 
	C208.658096,150.725235 214.097610,169.893021 219.725784,189.005234 
	C225.165741,207.478348 230.738373,225.912415 236.262253,244.360794 
	C236.534943,245.271500 236.898407,246.155045 238.068726,246.940796 
	C238.068726,235.717514 237.917007,224.491806 238.095139,213.271332 
	C238.846329,165.953552 238.708588,118.633141 238.750839,71.312378 
	C238.773834,45.561798 254.809967,23.628735 279.126251,16.731731 
	C310.848877,7.734017 342.224609,21.725285 352.977264,52.547611 
	C355.004486,58.358685 356.132751,64.362854 356.123871,70.620232 
	C356.044617,126.277504 356.069611,181.934921 356.063873,237.592300 
	C356.063782,238.375992 356.063843,239.159698 356.063843,239.943390 
	C356.266876,239.973373 356.469879,240.003357 356.672913,240.033340 
	C359.305664,231.363419 361.991516,222.709198 364.560577,214.020447 
	C370.823059,192.840088 377.010406,171.637543 383.267365,150.455536 
	C389.614960,128.966782 395.719574,107.400322 402.465027,86.036644 
	C409.298523,64.394112 424.668243,50.562614 446.596619,47.265133 
	C472.453278,43.376938 499.073792,53.343060 511.733704,80.243156 
	C511.945068,80.692329 512.255310,81.094963 512.759766,81.759659 
	C513.000000,96.687561 513.000000,111.375122 513.000000,126.531342 
M262.239166,177.499985 
	C262.251617,199.827850 262.272064,222.155701 262.274200,244.483566 
	C262.276031,263.645966 262.356476,282.809235 262.190704,301.970306 
	C262.135864,308.308685 259.731354,313.918488 253.719238,316.749786 
	C247.325394,319.760834 241.413925,318.071045 236.244156,313.378052 
	C230.216171,307.906006 227.241821,300.800018 225.023392,293.201843 
	C216.035004,262.416260 207.021149,231.638016 197.941940,200.879120 
	C188.820999,169.978897 179.637711,139.097000 170.430023,108.222488 
	C165.273453,90.931885 147.794891,81.065857 131.013992,85.376884 
	C107.149361,91.507744 98.729309,111.958763 105.647758,131.264725 
	C110.114517,143.729218 112.983147,156.761597 116.694817,169.502502 
	C125.007729,198.038025 133.416046,226.545746 141.754822,255.073746 
	C149.021744,279.934814 156.244232,304.808868 163.490952,329.675873 
	C167.395248,343.073456 171.507294,356.414703 175.143250,369.884613 
	C177.260132,377.726837 179.114441,385.301819 188.072098,388.377686 
	C191.003555,389.384277 193.464294,391.683319 196.296616,393.072571 
	C203.264297,396.490265 209.488983,401.319977 216.560852,404.203400 
	C217.147552,403.659363 217.454910,403.477203 217.611954,403.207489 
	C217.945709,402.634247 218.233856,402.028717 218.484116,401.413422 
	C226.489532,381.731842 241.469009,369.853699 261.437164,364.261261 
	C272.584961,361.139099 284.085663,359.245392 295.464996,356.988129 
	C318.584747,352.401886 341.770660,348.141205 364.853027,343.376892 
	C386.267822,338.956787 406.756714,341.721954 426.675751,350.170837 
	C430.240417,351.682892 433.699554,353.443726 437.226135,355.098450 
	C437.973389,353.234589 437.204590,352.207092 436.695831,351.231781 
	C433.831787,345.740875 432.227936,339.802795 430.378693,333.946625 
	C427.709900,325.495117 431.455750,317.934418 433.692383,310.195068 
	C440.145966,287.864288 446.692017,265.560150 453.226532,243.252808 
	C458.683258,224.624893 464.166107,206.004593 469.653656,187.385696 
	C475.429474,167.788757 481.284241,148.214813 486.979736,128.594620 
	C489.057983,121.435463 491.780334,114.264458 492.454437,106.937462 
	C493.907501,91.143799 484.840729,78.728256 469.158386,73.149681 
	C451.407990,66.835442 432.424164,75.084579 426.366760,91.874535 
	C424.507172,97.029030 422.969818,102.305626 421.430573,107.568909 
	C412.476929,138.185104 403.633240,168.833557 394.622498,199.432877 
	C386.226898,227.943359 377.548462,256.371033 369.253296,284.910370 
	C366.622498,293.961670 363.688171,302.698944 356.526001,309.256836 
	C347.655579,317.378906 335.370667,313.885315 332.271759,302.319122 
	C331.639435,299.959106 331.721802,297.368317 331.721802,294.883911 
	C331.722107,220.900101 331.758820,146.916306 331.759003,72.932503 
	C331.759003,70.282288 331.805420,67.550308 331.222443,64.995094 
	C327.375183,48.132164 311.969971,36.605782 293.639465,38.955654 
	C275.234253,41.315098 263.158295,53.598251 262.983246,72.098358 
	C262.653931,106.898132 262.478760,141.699356 262.239166,177.499985 
M246.034622,442.393524 
	C254.822876,452.755371 266.193970,456.718964 279.464539,455.602478 
	C284.922241,455.143311 290.356995,454.294403 295.767242,453.409332 
	C314.613068,450.326172 333.426727,447.043396 352.286591,444.050232 
	C362.847198,442.374207 370.060760,450.482697 367.151398,460.398407 
	C366.258270,463.442230 363.924011,465.343048 361.749542,467.420776 
	C339.698303,488.490723 323.219940,512.122986 326.340759,544.736633 
	C326.605957,547.507935 325.729767,549.962280 323.871735,552.105591 
	C320.370667,556.144470 315.601318,557.607727 310.864868,555.980591 
	C305.358185,554.088745 302.408875,549.617004 301.916962,542.848755 
	C300.356323,521.377808 305.451538,501.591858 316.764587,483.340607 
	C318.399231,480.703522 319.943756,478.010559 321.580231,475.258911 
	C318.824982,473.659393 316.600647,474.773987 314.369934,475.041718 
	C299.549164,476.820374 284.998657,481.016327 269.868530,480.029541 
	C267.430725,479.870544 265.820740,480.600067 265.078033,483.266602 
	C263.642975,488.418640 260.850128,492.976349 258.417480,497.713867 
	C243.576065,526.616882 206.846848,535.573242 179.635574,520.037354 
	C165.171387,511.779144 150.812469,503.336517 136.404541,494.979736 
	C129.982788,491.255005 123.557434,487.536530 116.438240,483.412323 
	C116.438240,485.322144 116.291687,486.309143 116.460114,487.239105 
	C119.211632,502.430878 121.542694,517.732117 126.380836,532.448425 
	C135.064072,558.860413 146.803787,583.415405 168.882233,601.664001 
	C181.869598,612.398499 196.597397,619.343628 213.049667,622.650513 
	C228.959518,625.848328 244.922089,623.848145 260.752167,622.196838 
	C282.441650,619.934326 304.043182,620.782349 325.546417,623.229370 
	C343.076843,625.224304 360.268066,625.938599 377.473999,621.050720 
	C404.017426,613.510376 425.555267,598.835449 442.551697,577.167480 
	C457.132568,558.578918 466.722412,537.441711 474.752136,515.474548 
	C478.493744,505.238403 483.768311,495.516449 482.981171,483.920990 
	C482.329834,474.325897 482.778809,464.700470 480.877808,455.142120 
	C478.069794,441.023376 474.641571,427.103912 466.922943,414.819855 
	C454.475739,395.010437 436.548065,381.492249 415.468903,371.946808 
	C400.871857,365.336731 385.422821,364.607239 369.973114,367.128906 
	C355.563171,369.480865 341.374176,373.164917 327.056976,376.112305 
	C307.676178,380.102203 288.094910,383.260681 268.910156,388.025818 
	C243.268646,394.394714 231.170425,417.205719 246.034622,442.393524 
M182.814056,493.647888 
	C185.988647,495.469055 189.107101,497.397644 192.348328,499.091309 
	C202.093903,504.183838 212.059998,504.618530 222.072250,499.967957 
	C232.662003,495.049072 237.952789,485.813782 241.685516,475.369629 
	C242.720306,472.474304 241.456573,470.748962 239.097137,469.188538 
	C227.088989,461.246918 220.234818,449.760406 216.854248,436.041412 
	C216.224915,433.487427 214.751755,431.922028 212.707397,430.747650 
	C195.542435,420.886932 178.394913,410.994354 161.149048,401.276611 
	C151.852310,396.038055 142.205215,395.511261 132.508881,400.302917 
	C125.530510,403.751404 121.121971,409.633606 117.012123,416.071960 
	C105.988205,433.341766 113.576828,453.200256 128.378021,461.743225 
	C146.382263,472.134979 164.260468,482.745117 182.814056,493.647888 
z"></path>
</svg>