<svg version="1.1" id="Layer_1" xmlns="http://www.w3.org/2000/svg" xmlns:xlink="http://www.w3.org/1999/xlink" x="0px" y="0px"
	 width="100%" viewBox="0 0 400 544" enable-background="new 0 0 400 544" xml:space="preserve">
<path fill="#FFFFFF" opacity="1.000000" stroke="none" 
	d="
M1.000000,110.000000 
	C1.000000,94.979103 1.000000,79.958214 1.265306,64.268082 
	C2.116612,62.794491 2.746449,62.018208 3.282193,61.181667 
	C16.326645,40.813240 35.324829,33.916519 58.406319,37.823765 
	C79.191612,41.342316 90.362305,55.205750 95.985916,74.737526 
	C104.913773,105.745529 114.203598,136.649368 123.356750,167.592407 
	C126.199142,177.201355 129.094894,186.794525 131.966217,196.394928 
	C132.740448,194.234009 132.741516,192.242706 132.740295,190.251404 
	C132.713516,146.423035 132.551544,102.594177 132.708023,58.766460 
	C132.808350,30.670670 153.845291,9.748974 181.703156,9.496621 
	C212.619949,9.216559 233.305099,29.669117 233.358063,60.488152 
	C233.423355,98.472603 233.053131,136.458847 233.941162,174.440292 
	C234.157990,183.713608 233.973450,192.996307 233.973450,202.551971 
	C235.519577,201.883118 235.481461,200.984665 235.707397,200.218964 
	C246.300827,164.316544 256.863037,128.404846 267.519623,92.521172 
	C270.026581,84.079498 272.159454,75.414589 277.688232,68.251625 
	C290.805115,51.257652 313.361298,41.587822 339.862427,53.497322 
	C361.847351,63.377235 373.400177,85.289604 367.689117,108.669945 
	C360.029022,140.029541 349.707703,170.642441 340.892670,201.682343 
	C331.031128,236.407089 320.731903,271.007416 310.687225,305.680420 
	C308.817322,312.135193 309.462982,313.358490 315.244141,313.523682 
	C343.747589,314.337982 363.730316,345.250031 361.467285,368.411957 
	C360.319336,380.161377 359.381927,391.931671 358.390991,403.696045 
	C356.424225,427.044556 351.645874,449.757477 342.790680,471.503510 
	C334.244690,492.490173 322.204132,511.022186 304.442596,525.524902 
	C293.289337,534.631836 280.472168,540.415344 267.000000,545.000000 
	C213.979111,545.000000 160.958206,545.000000 107.237427,544.742188 
	C105.638283,544.085022 104.763855,543.612854 103.836197,543.296997 
	C80.254639,535.267761 60.397045,521.920898 44.699097,502.423950 
	C30.731024,485.075531 21.599583,465.199249 13.494162,444.688995 
	C8.075047,430.976257 3.694942,417.273895 4.507414,402.142609 
	C5.718060,379.595825 9.682118,357.966309 21.339125,338.210327 
	C32.026588,320.097534 40.266693,300.821991 47.949429,281.284119 
	C49.439095,277.495789 49.546421,274.058075 48.397652,270.190521 
	C38.221195,235.929260 28.192366,201.624191 18.074003,167.345612 
	C12.427648,148.217133 6.694201,129.114365 1.000000,110.000000 
M249.389847,231.718109 
	C247.772766,237.136673 246.151764,242.554077 244.539642,247.974106 
	C242.807236,253.798569 240.342484,259.212860 235.794388,263.437195 
	C231.332275,267.581665 226.371506,269.765411 220.342667,266.979614 
	C214.659149,264.353363 212.517502,259.638489 212.626801,253.610519 
	C212.901367,238.466736 212.292923,223.330612 212.487518,208.176147 
	C212.808228,183.198349 212.801910,158.210312 212.180420,133.220261 
	C211.559219,108.241875 211.808640,83.242340 211.618973,58.252510 
	C211.532852,46.904819 205.027786,37.646568 194.486130,33.610706 
	C173.596573,25.613157 154.385849,38.894703 154.378510,61.397884 
	C154.358063,124.051147 154.375061,186.704422 154.365982,249.357697 
	C154.364899,256.858856 151.481201,261.555267 145.721161,263.604675 
	C140.586807,265.431427 134.747726,263.316742 130.330276,258.033661 
	C125.833572,252.655777 123.652931,246.184341 121.705231,239.621017 
	C113.659348,212.508057 105.641327,185.386810 97.619141,158.266830 
	C89.644028,131.305984 81.894829,104.275566 73.610214,77.410225 
	C69.641663,64.541016 58.862278,58.119080 44.945885,59.097576 
	C32.025646,60.006031 21.116798,69.172211 18.698034,81.357033 
	C17.460037,87.593590 19.102743,93.575569 20.850208,99.509621 
	C37.293312,155.347229 53.720100,211.189651 70.178932,267.022614 
	C71.927521,272.954346 71.988068,278.807251 69.946510,284.667114 
	C68.597229,288.539917 67.285103,292.425659 65.916367,296.422333 
	C68.526711,297.016022 70.119492,295.552124 71.871948,294.798584 
	C88.626930,287.594208 105.958946,284.545502 124.042641,288.006744 
	C150.815369,293.130981 177.547791,298.466766 204.287323,303.763214 
	C224.347809,307.736786 241.163147,316.332306 249.812927,336.280945 
	C251.210419,339.503906 253.137009,339.376373 255.753860,337.814331 
	C261.617432,334.314331 267.307678,330.370667 273.527527,327.661407 
	C280.544983,324.604645 283.833862,319.462341 285.836700,312.473846 
	C295.552094,278.573425 305.496674,244.738647 315.377655,210.885757 
	C325.350922,176.716797 335.345215,142.554016 345.329590,108.388306 
	C351.434875,87.496536 337.732452,69.696983 316.013092,70.304588 
	C304.017212,70.640175 294.519989,78.956680 290.476715,92.636070 
	C276.850525,138.736984 263.217407,184.835846 249.389847,231.718109 
M302.746643,496.249786 
	C323.320068,471.341888 331.102142,441.635864 335.773132,410.350433 
	C332.746796,409.980560 331.187347,411.366211 329.515961,412.333710 
	C314.523590,421.011932 299.594696,429.800995 284.551483,438.389893 
	C263.140991,450.614136 237.618057,446.882660 222.073761,429.381714 
	C217.021729,423.693756 213.806366,416.886871 210.854492,410.003113 
	C209.488815,406.818420 207.784668,405.138245 204.190491,405.332947 
	C195.641098,405.796112 187.322937,403.915741 178.930191,402.694946 
	C174.313416,402.023468 169.707947,400.388458 164.820892,401.337341 
	C164.652100,403.516113 165.905258,404.755768 166.639908,406.194244 
	C169.060776,410.934540 171.829712,415.533844 173.826401,420.446838 
	C179.105789,433.437103 181.710876,446.901672 179.275681,460.941376 
	C178.267731,466.752563 172.665863,470.880310 167.395142,470.130035 
	C161.432022,469.281250 157.443192,464.213776 158.059494,457.985840 
	C158.996384,448.518219 157.460876,439.415253 154.184998,430.575989 
	C148.769714,415.963959 138.758881,404.650543 127.764793,394.052368 
	C122.747482,389.215759 121.634094,384.395844 124.217361,379.261963 
	C126.368927,374.986023 131.347504,372.848267 137.612381,373.823364 
	C146.641281,375.228668 155.627487,376.908478 164.656921,378.309967 
	C177.454865,380.296295 190.118103,383.643372 203.140869,383.557617 
	C222.048157,383.433197 235.560776,365.818420 230.564133,347.956665 
	C227.247345,336.099945 218.292038,329.912811 206.900452,327.442017 
	C179.453308,321.488647 151.915115,315.954987 124.412331,310.258331 
	C110.915138,307.462677 97.590912,307.672272 84.756485,313.198578 
	C54.005314,326.439636 33.832260,348.469055 28.557056,382.338409 
	C26.847223,393.316376 24.363443,404.712891 27.228918,415.540192 
	C33.036388,437.483826 41.523716,458.537506 54.220409,477.528351 
	C76.291962,510.541473 106.594734,528.475098 147.125046,526.555298 
	C158.244873,526.028625 169.308319,524.358032 180.427063,523.752197 
	C197.765945,522.807556 214.973419,525.145142 232.239853,526.288635 
	C260.323212,528.148682 283.677338,517.882141 302.746643,496.249786 
M242.699829,387.122009 
	C239.995148,390.305359 236.977158,393.137695 233.581039,395.590240 
	C231.786774,396.885895 230.540268,398.355042 231.135025,401.037811 
	C235.057465,418.730743 254.508362,429.211243 270.277710,420.823395 
	C289.939514,410.365082 309.180115,399.031860 328.047424,387.191772 
	C340.934357,379.104645 343.206543,363.249237 334.822815,349.780884 
	C325.789124,335.268280 312.339386,331.176392 298.220856,339.004181 
	C284.257812,346.745758 270.500427,354.857513 256.597473,362.708862 
	C253.769577,364.305847 252.147324,366.545959 251.350616,369.602417 
	C249.737976,375.789124 246.987762,381.441589 242.699829,387.122009 
z"/>
</svg>