<svg version="1.1" id="Layer_1" xmlns="http://www.w3.org/2000/svg" xmlns:xlink="http://www.w3.org/1999/xlink" x="0px" y="0px"
	 width="100%" viewBox="0 0 416 464" enable-background="new 0 0 416 464" xml:space="preserve">
<path fill="#FFFFFF" opacity="1.000000" stroke="none" 
	d="
M344.466858,465.000000 
	C343.900330,452.005096 343.768127,439.010284 343.718109,426.015198 
	C343.699829,421.268829 345.998383,417.434296 348.827911,413.821075 
	C376.429688,378.574493 393.304718,338.618622 400.398346,294.565186 
	C404.141876,271.316711 404.027832,247.819031 403.003113,224.339798 
	C402.975250,223.701630 402.703247,223.074127 402.415161,221.922012 
	C373.224243,240.688736 347.491943,237.351135 325.175842,209.828064 
	C314.566132,223.442322 300.629028,231.220642 283.214233,230.948242 
	C265.817291,230.676132 251.886108,222.877304 241.353394,208.307251 
	C239.107407,210.694611 237.188660,212.682907 235.325912,214.722366 
	C222.493942,228.771683 206.507339,233.098373 188.167847,229.860870 
	C185.474380,229.385391 183.518738,229.396561 181.553741,231.711349 
	C170.090607,245.214951 155.653412,252.231918 137.695587,251.374680 
	C134.383926,251.216599 131.058243,251.352097 127.711868,251.947968 
	C133.074921,252.702194 138.512131,252.289703 143.883652,252.540665 
	C187.294601,254.568939 225.497116,287.750458 233.315872,330.641510 
	C234.179169,335.377197 234.663284,340.192139 235.117767,344.989807 
	C235.747849,351.640869 232.751389,356.112457 227.633041,356.498627 
	C222.412170,356.892578 218.912277,353.114441 218.779480,346.156708 
	C218.320419,322.104523 207.625870,302.944458 190.245361,287.273376 
	C178.129944,276.349579 163.391083,270.988434 147.217377,269.201782 
	C138.067825,268.191101 128.919891,268.452026 119.764191,268.352234 
	C112.279205,268.270660 108.852791,265.420441 108.963837,257.844421 
	C109.045113,252.299377 106.936310,251.126465 101.909470,251.266739 
	C90.753105,251.578003 79.581619,251.361237 68.416359,251.334961 
	C61.592682,251.318893 58.423313,248.923553 58.333126,243.784866 
	C58.243538,238.679932 61.960339,235.685928 68.701012,235.673157 
	C90.864906,235.631165 113.028946,235.666122 135.192902,235.643143 
	C142.900406,235.635147 150.461472,234.999817 157.475845,231.237762 
	C172.932602,222.947754 180.586334,205.743942 176.362976,188.454376 
	C172.345734,172.008499 157.384155,160.340729 140.105042,160.320663 
	C106.610016,160.281784 73.114899,160.291519 39.619846,160.319183 
	C26.014431,160.330414 15.333758,170.626129 15.298415,184.172226 
	C15.203197,220.667099 14.249784,257.203217 15.650690,293.645538 
	C16.895815,326.035522 30.745747,353.618439 54.400318,376.045654 
	C63.349869,384.530823 73.817062,391.268463 82.242241,400.358734 
	C98.912407,418.344849 106.640488,439.669037 106.081406,464.541382 
	C101.310745,465.000000 96.621490,465.000000 91.367310,464.586548 
	C90.281609,459.390961 89.952049,454.578827 89.207169,449.831848 
	C85.877602,428.613373 74.497917,412.572113 57.545990,399.825775 
	C38.259617,385.324066 22.815821,367.507599 12.507546,345.451385 
	C7.196541,334.087677 3.833782,322.141876 1.000000,310.000000 
	C1.000000,263.979095 1.000000,217.958206 1.231702,171.216446 
	C7.414917,156.671326 17.604048,147.924881 32.432415,144.876648 
	C40.327408,143.253708 48.370014,143.581314 56.337673,143.886765 
	C61.348141,144.078857 62.950775,142.554779 62.895325,137.430557 
	C62.642963,114.109154 62.802773,90.783478 62.765762,67.459412 
	C62.758064,62.606937 63.206959,57.792770 64.271111,53.093624 
	C72.778610,15.525626 117.615837,0.996779 146.979965,26.228642 
	C148.433411,27.477554 149.534821,29.343786 151.946060,29.421562 
	C152.347870,28.924572 152.847168,28.470282 153.148972,27.909672 
	C159.727341,15.689395 169.144562,6.744055 182.506897,2.289540 
	C183.083771,2.097227 183.505829,1.440426 184.000000,0.999999 
	C193.020889,1.000000 202.041794,1.000000 211.795044,1.224370 
	C227.529221,6.284941 238.458527,15.894530 245.566742,30.776943 
	C261.750244,15.833629 279.480927,9.779635 300.499603,17.212776 
	C321.651581,24.693062 331.906281,40.443195 334.635956,62.415859 
	C337.023834,60.826496 338.667938,59.727802 340.316376,58.635685 
	C353.905579,49.632565 368.459595,47.350155 384.091003,52.257198 
	C400.360748,57.364635 410.784332,68.490585 417.000000,84.000000 
	C417.000000,153.687561 417.000000,223.375122 416.846832,293.881226 
	C416.172791,297.971802 415.754456,301.264038 415.115570,304.512878 
	C406.648560,347.567657 389.781433,386.903687 363.041504,421.849030 
	C361.273163,424.160004 360.160980,426.550049 360.170990,429.589050 
	C360.209869,441.392395 360.072052,453.196289 360.000000,465.000000 
	C354.977905,465.000000 349.955811,465.000000 344.466858,465.000000 
M251.652130,192.749588 
	C259.191437,209.227127 273.848755,217.573166 289.666321,214.395248 
	C306.745483,210.963852 318.174927,197.261475 318.203735,179.617447 
	C318.265686,141.659225 318.117157,103.700684 318.091736,65.742256 
	C318.086090,57.305981 315.998444,49.606297 310.459686,43.072403 
	C300.712891,31.574389 285.617554,27.366468 272.158386,32.345322 
	C258.047668,37.565208 249.346329,50.098110 249.333466,65.431885 
	C249.301773,103.224876 249.355759,141.017975 249.277588,178.810822 
	C249.268143,183.372879 249.894409,187.739639 251.652130,192.749588 
M233.022095,138.500000 
	C232.946411,108.512161 233.249680,78.516991 232.669037,48.538933 
	C232.243484,26.567820 210.768250,11.390012 189.517471,17.174377 
	C175.015259,21.121809 164.409592,34.406994 164.315857,49.482643 
	C164.132507,78.971474 164.439041,108.464821 164.054642,137.949936 
	C163.954239,145.651779 165.537445,150.646820 172.435989,155.650955 
	C190.067886,168.440964 195.957489,186.758774 192.441544,208.104843 
	C191.421814,214.295898 191.562866,214.658463 197.747757,214.803085 
	C216.846283,215.249680 232.138596,201.128174 232.720184,181.978210 
	C233.149902,167.828812 232.943710,153.660110 233.022095,138.500000 
M403.079590,165.494843 
	C403.092194,144.346985 402.794434,123.193031 403.208435,102.053032 
	C403.589417,82.597870 389.734528,67.346481 370.774689,66.066521 
	C351.733093,64.781044 334.712921,80.219948 334.449341,99.254860 
	C334.057434,127.557663 334.135468,155.872406 334.440063,184.177460 
	C334.635254,202.313965 349.220734,216.597214 367.711395,217.635803 
	C384.462189,218.576675 399.851105,205.632690 402.827179,188.386017 
	C404.091278,181.060471 402.478821,173.780228 403.079590,165.494843 
M78.982162,93.500000 
	C78.980103,108.327339 79.078049,123.155807 78.912346,137.981308 
	C78.865326,142.187836 80.112373,144.093155 84.606628,143.860886 
	C90.255852,143.568939 95.932007,143.762833 101.596153,143.801727 
	C115.250557,143.895523 128.915787,143.748474 142.552200,144.301453 
	C146.599548,144.465561 147.861404,143.843201 147.840530,139.767029 
	C147.707367,113.778099 147.950195,87.786064 147.664841,61.799503 
	C147.469345,43.995346 131.194321,29.202993 112.889023,29.541040 
	C94.928696,29.872717 79.704163,44.532887 79.314682,62.020477 
	C79.088463,72.177742 79.085983,82.339989 78.982162,93.500000 
z"/>
</svg>