<svg xmlns="http://www.w3.org/2000/svg" viewBox="0 0 816 880" xml:space="preserve" transform="scale(-1 1)"><path fill="#FFF" d="M619.468 881c-4.491-3.776-6.03-8.37-5.865-13.913 1.617-53.97 23.066-98.347 65.26-131.967 20.783-16.56 41.5-32.913 57.555-54.382 24.591-32.882 40.612-69.32 46.422-110.134 1.905-13.383 2.772-26.81 2.785-40.292a83237.9 83237.9 0 0 0-.009-179.48c-.015-12.48-3.07-24.077-11.41-33.807-9.31-10.863-21.155-16.647-35.437-16.672-62.826-.112-125.653-.112-188.479-.043-36.357.04-66.462 25.364-71.648 61.303-6.678 46.284 29.454 81.58 66.888 82.087 45.153.612 90.32.255 135.48.355 2.987.007 5.996.167 8.958.545 7.83.997 12.817 7.074 12.354 14.832-.442 7.392-6.147 12.848-13.92 12.877-23.996.092-47.994.01-71.991.07-9.587.024-9.652-1.65-9.488 9.301.032 2.165.052 4.34-.124 6.495-.87 10.655-6.38 15.906-17.105 16.01-13.997.137-28.026-.512-41.99.188-63.568 3.187-108.366 34.594-135.334 91.714-8.397 17.785-12.233 36.881-12.242 56.647-.002 3.009-.313 6.007-1.515 8.8-2.582 6.002-8.946 9.471-14.974 8.259-7.25-1.46-11.913-6.883-11.92-14.491-.03-29.346 6.638-57.18 20.604-82.94 27.269-50.295 69.376-81.165 125.135-93.353 18.175-3.973 36.734-3.559 55.226-3.345 3.363.039 3.364-.014 5.619-1.857-1.24-2.416-3.506-1.344-5.293-1.417-12.135-.498-24.284.586-36.43-.911-21.08-2.6-39.075-11.523-54.658-25.657-4.572-4.147-8.829-8.623-12.316-13.75-1.285-1.889-2.637-2.427-5.018-1.886-43.02 9.773-77.691-2.968-103.762-38.709-.376-.516-.882-.938-1.685-1.778-19.095 27.44-44.794 42.983-78.411 43.655-33.732.675-59.778-14.291-80.179-41.309-16.273 25.658-38.804 41.481-68.638 45.536-29.581 4.02-55.436-5.022-77.636-24.655-1.377 1.717-.97 3.096-.97 4.369-.004 27.497-.576 55.011.223 82.485.75 25.756 4.022 51.33 9.202 76.63 15.748 76.903 47.868 146.174 96.77 207.593 3.756 4.718 5.586 9.718 5.585 15.568-.008 26.83-.03 53.662-.067 80.96-9.04.469-18.062.469-27.655.01-.61-25.124-.708-49.788-.625-74.452.012-3.7-.92-6.646-3.22-9.586-25.788-32.968-47.022-68.664-64.016-106.921-28.552-64.278-43.868-131.615-44.415-201.863-.762-97.991-.248-195.992-.255-293.99 0-5.483.027-10.935.676-16.441 4.917-41.7 39.034-79.46 88.54-82.452 24.782-1.497 46.883 6.449 66.041 22.36 1.219 1.013 2.208 2.54 4.448 2.489 3.505-41.39 23.225-71.75 62.83-86.106 39.649-14.374 74.084-2.935 103.184 26.045.792-.598 1.154-.74 1.296-1a202.898 202.898 0 0 0 3.029-5.733c8.164-16.155 19.873-28.989 35.3-38.568C401.264 7.438 413.437 3.77 426 1c8.688 0 17.375 0 26.859.169 2.243.554 3.675 1.014 5.14 1.313 26.998 5.498 47.268 20.576 61.847 43.626 2.633 4.163 4.678 8.698 7.26 13.561 3.058-2.897 5.776-5.52 8.543-8.089 28.264-26.242 70.738-32.774 105.02-15.185 34.124 17.507 51.971 46.143 52.513 84.4.683 48.148.165 96.314.17 144.472 0 6.519.016 6.537 6.654 6.551 8.666.019 17.332.106 25.995-.021 9.848-.145 19.663.24 29.255 2.534 34.716 8.3 58.06 37.928 58.082 73.628.035 61.49-.055 122.979.056 184.468.027 15.17-.639 30.24-3.017 45.246-6.006 37.886-19.583 72.82-40.628 104.851-19.273 29.336-44.432 52.685-72.252 73.926-34.998 26.72-53.29 63.097-55.438 107.27-.303 6.238-.765 12.28-5.059 17.28h-17.532m-358.71-478.266c10.589 2.628 21.142 3.77 32.05 1.367 30.991-6.825 52.516-35.06 52.297-66.225-.5-71.3-.162-142.608-.16-213.912 0-6.007-.448-11.961-1.888-17.815-7.868-31.993-39.084-53.755-71.292-49.698-33.662 4.24-58.392 31.76-58.42 65.261-.062 72.304-.057 144.608-.01 216.912.018 30.1 17.887 54.497 47.422 64.11m188.929-27.325c.042-4.164-.321-8.378.191-12.483 4.2-33.65 20.148-59.859 49.76-77.059 3.997-2.322 5.507-4.867 5.498-9.433-.118-60.14-.28-120.281.015-180.42.209-42.572-35.435-66.949-64.527-67.145-37.029-.249-67.245 28.703-67.269 65.785-.052 81.298-.043 162.595-.016 243.893.01 32.267 21.345 58.844 52.84 65.702 9.326 2.031 18.686 1.877 28.185-1.008-2.426-9.116-4.282-17.87-4.677-27.832M163.274 140.23c-15.093-13.816-33.132-19.153-53.058-16.63-32.684 4.14-56.816 32.034-56.891 65.032-.12 51.977.104 103.955-.068 155.932-.12 36.801 31.016 65.744 64.79 65.604 36.482-.15 66.297-27.564 66.659-64.088.519-52.472.205-104.952.119-157.43-.032-18.964-7.173-34.968-21.55-48.42m370.068 40.27v92.667c9.814-1.126 18.919-1.384 28.047-1.361 32.642.082 65.284-.085 97.924.129 5.138.033 6.462-1.555 6.407-6.54-.245-22.48.088-44.966-.148-67.446-.29-27.627.949-55.263-.773-82.882-2.155-34.574-35.09-66.433-76.947-59.202-32.315 5.583-54.493 33.005-54.504 65.68-.006 19.318-.004 38.636-.006 58.955z"/></svg>