<svg version="1.1" id="Layer_1" xmlns="http://www.w3.org/2000/svg" xmlns:xlink="http://www.w3.org/1999/xlink" x="0px" y="0px"
	 width="100%" viewBox="0 0 400 400" enable-background="new 0 0 400 400" xml:space="preserve">
<path fill="#FFFFFF" opacity="1.000000" stroke="none" 
	d="
M91.468658,401.000000 
	C85.789780,397.468781 80.376648,394.200256 75.405487,390.359589 
	C56.667641,375.883057 45.949940,355.935547 37.487904,334.413849 
	C32.890568,322.721344 28.586481,311.079742 29.748606,298.172241 
	C31.317528,280.746521 36.627705,264.766815 44.165012,248.793655 
	C53.496449,229.018356 59.676624,208.389206 52.086620,185.269928 
	C40.262112,149.252274 30.494486,112.552269 20.173174,76.051521 
	C15.786922,60.539783 19.292139,46.544376 32.308823,36.627941 
	C44.654026,27.223061 58.766823,26.125734 72.876793,32.882484 
	C82.875282,37.670403 87.974854,46.720840 90.982445,56.920788 
	C101.848465,93.771820 112.533524,130.676193 123.380188,167.532990 
	C124.716286,172.073044 125.624748,176.813049 128.110870,181.359512 
	C131.278091,179.410141 130.623169,176.582184 130.625366,174.107132 
	C130.663040,131.613541 130.996521,89.116035 130.513321,46.627945 
	C130.284805,26.535679 142.357590,8.882079 166.750366,8.021970 
	C184.196640,7.406799 202.559341,19.773851 203.122971,41.596596 
	C203.819565,68.567810 203.043350,95.576164 202.962250,122.568649 
	C202.906769,141.032455 202.951645,159.496552 202.951645,177.960526 
	C203.361221,178.014832 203.770798,178.069122 204.180374,178.123428 
	C206.673859,168.429153 209.236862,158.752121 211.647903,149.037384 
	C219.137787,118.858582 226.503021,88.648705 234.051529,58.484646 
	C238.109695,42.268066 248.347443,32.046646 265.088348,30.223515 
	C288.543762,27.669155 311.078979,47.702499 305.531433,71.695023 
	C297.328125,107.173485 288.400909,142.484421 279.808838,177.873230 
	C276.952820,189.636536 274.179565,201.419937 271.134857,214.172729 
	C273.753540,212.499069 274.569183,210.578384 275.557251,208.862961 
	C288.776642,185.911865 301.984833,162.954254 315.169586,139.983246 
	C321.310913,129.283600 330.014862,122.358315 342.477356,120.227959 
	C367.792236,115.900612 389.186005,139.959518 381.468689,164.340561 
	C378.418762,173.976074 372.545776,182.192596 367.649048,190.872772 
	C350.707916,220.903442 333.604340,250.842926 316.439362,280.746429 
	C312.394012,287.793976 310.672150,295.607117 308.213867,303.182373 
	C300.744385,326.199829 292.232819,348.736420 279.117554,369.277008 
	C270.923065,382.110901 261.015228,393.137634 247.243668,400.769836 
	C195.312439,401.000000 143.624878,401.000000 91.468658,401.000000 
M157.650024,347.699341 
	C149.866867,349.366608 145.716949,346.585663 145.782623,338.920746 
	C145.954239,318.890076 140.486206,300.541962 130.552322,283.280975 
	C125.526337,274.547943 128.977692,268.855316 139.216980,267.623291 
	C149.443802,266.392792 159.682999,265.093414 169.703644,262.622864 
	C177.339508,260.740295 183.583786,256.807404 186.544479,249.116669 
	C192.064331,234.778259 180.247604,219.613541 164.113464,221.196869 
	C143.107773,223.258286 122.203926,226.341934 101.238861,228.839752 
	C91.085403,230.049438 81.812599,233.160919 73.852608,239.808228 
	C61.408382,250.200272 53.448910,263.407745 49.327339,278.947968 
	C46.055241,291.285248 44.012600,303.849243 48.268620,316.306946 
	C52.358223,328.277496 56.926216,340.146606 63.479248,351.028961 
	C80.681763,379.596527 105.027809,395.561554 139.444717,392.686951 
	C152.888031,391.564148 166.307770,389.920166 179.800674,390.924896 
	C189.945999,391.680328 200.086960,391.987579 210.245605,392.063324 
	C233.102966,392.233765 250.472092,382.507324 263.039948,363.437134 
	C275.914581,343.901398 284.481995,322.492065 291.736816,300.435211 
	C294.903259,290.808258 297.233673,280.888275 302.369995,271.962616 
	C315.414642,249.294098 328.353973,226.564728 341.269806,203.822418 
	C349.002167,190.207123 356.948456,176.697144 364.169037,162.812424 
	C370.007446,151.585541 364.906097,140.995575 352.773621,137.396301 
	C343.260193,134.574020 335.425018,138.093033 329.889618,147.702011 
	C318.663422,167.189774 307.456787,186.688797 296.222198,206.171707 
	C292.644501,212.376114 289.197083,218.667679 285.343170,224.697662 
	C280.535095,232.220535 271.452332,234.916870 263.459442,231.595978 
	C255.920334,228.463608 252.547913,221.377945 254.666718,212.207504 
	C257.773254,198.762100 261.131348,185.374680 264.400482,171.966995 
	C272.592621,138.368866 280.785431,104.770897 289.007538,71.180099 
	C289.855682,67.714928 290.087036,64.263039 289.112030,60.828426 
	C286.597107,51.969254 279.235657,46.933159 268.951019,46.933887 
	C259.031372,46.934586 252.612350,51.541161 250.268448,60.928120 
	C241.890533,94.480133 233.657410,128.068268 225.360214,161.640442 
	C223.446243,169.384781 221.898865,177.249908 219.458725,184.826263 
	C216.458130,194.142715 207.011703,199.688660 197.954178,198.251801 
	C190.170044,197.016937 186.649597,191.295914 186.655609,179.872879 
	C186.668472,155.373978 186.675461,130.875061 186.702850,106.376183 
	C186.726715,85.048286 186.984512,63.717827 186.720306,42.393688 
	C186.597336,32.468002 179.259186,25.657433 168.658798,24.429462 
	C159.736618,23.395899 150.733231,29.103577 147.927444,37.586792 
	C146.698715,41.301792 146.917099,45.156837 146.918091,48.979805 
	C146.928802,90.644653 146.972977,132.309509 146.948074,173.974319 
	C146.946091,177.292236 146.772537,180.657455 146.206635,183.918762 
	C144.511307,193.688843 134.890030,200.772476 125.388573,199.168015 
	C116.587875,197.681915 113.001190,191.272690 110.718338,183.392838 
	C99.792084,145.678116 88.714638,108.007118 77.640800,70.335327 
	C76.095276,65.077652 74.912888,59.674435 72.187782,54.825512 
	C68.436745,48.151081 60.924812,44.323391 53.190430,45.457172 
	C44.848286,46.680046 38.296215,50.610535 35.841312,59.146366 
	C34.340790,64.363747 35.261028,69.670090 36.788513,74.879768 
	C47.412235,111.113205 57.987125,147.360992 68.538658,183.615540 
	C71.275246,193.018326 74.564674,202.344254 72.333733,212.448898 
	C71.775551,214.977051 70.638893,217.528839 71.583641,220.805283 
	C78.007599,217.906418 84.275993,214.742950 91.202492,213.704544 
	C102.043152,212.079346 112.885300,210.407104 123.774460,209.176285 
	C138.300262,207.534393 152.683899,204.316071 167.399551,204.680496 
	C197.932938,205.436584 210.143082,235.450027 201.165344,256.302948 
	C195.385132,269.728912 184.344208,276.429565 170.531540,279.322052 
	C163.777267,280.736420 156.772369,280.925537 150.149139,283.117767 
	C150.211578,283.959991 150.113739,284.504700 150.302628,284.918579 
	C156.717072,298.973969 160.799957,313.659698 161.854187,329.089355 
	C162.283844,335.377930 164.517410,342.177002 157.650024,347.699341 
z"/>
</svg>