<svg version="1.1" id="Layer_1" xmlns="http://www.w3.org/2000/svg" xmlns:xlink="http://www.w3.org/1999/xlink" x="0px" y="0px"
	 width="100%" viewBox="0 0 416 384" enable-background="new 0 0 416 384" xml:space="preserve">
<path fill="#FFFFFF" opacity="1.000000" stroke="none" 
	d="
M1.000000,191.468658 
	C16.321737,172.785248 35.647133,176.181442 50.358307,183.189926 
	C59.452568,187.522491 67.195419,193.898987 75.050613,200.087662 
	C84.601059,207.611923 94.195145,215.081009 103.801384,222.533951 
	C104.680580,223.216064 105.540405,224.140335 107.486427,223.924118 
	C105.796204,218.136154 104.202515,212.443420 102.472687,206.792358 
	C88.691154,161.770203 74.954338,116.734154 61.056835,71.747772 
	C53.240810,46.447220 69.332191,27.723116 87.883148,24.346882 
	C106.621948,20.936464 123.043900,27.720819 129.288116,47.450008 
	C136.312210,69.643219 142.640335,92.056038 149.351440,114.349182 
	C154.577271,131.708466 159.928864,149.029861 165.213303,166.371536 
	C165.550842,167.479263 165.725723,168.649658 166.989883,169.612534 
	C168.434387,167.695251 167.965942,165.501892 167.969482,163.483597 
	C168.040466,123.159630 168.066177,82.835587 168.112106,42.511566 
	C168.116852,38.346577 168.425003,34.217941 169.346985,30.127611 
	C173.894852,9.951130 192.416733,1.906910 206.961975,3.249528 
	C226.454666,5.048825 240.565872,20.661642 240.262024,39.254734 
	C239.584061,80.738831 240.310211,122.217430 241.003616,163.878708 
	C242.889969,156.496582 244.797073,149.119690 246.659012,141.731415 
	C254.335205,111.271805 261.855591,80.772011 269.716431,50.360191 
	C274.748291,30.893003 292.230804,21.092743 312.805847,25.708971 
	C331.636230,29.933758 343.501556,47.191013 339.408508,66.250458 
	C334.457184,89.306435 328.440155,112.134140 322.846344,135.051361 
	C317.800873,155.721939 312.699188,176.378784 307.646027,197.047470 
	C307.414795,197.993256 307.416504,198.995972 307.228088,200.718582 
	C309.550507,199.179398 310.238556,197.180267 311.218994,195.487595 
	C324.157928,173.149307 336.830414,150.660904 350.112701,128.516373 
	C365.944794,102.120773 401.711090,111.197998 411.174255,129.917923 
	C416.461487,140.377121 416.782440,150.599197 411.366425,160.974274 
	C400.032867,182.685257 387.292664,203.608444 375.454407,225.035721 
	C365.793457,242.522003 354.914978,259.346313 346.719299,277.631653 
	C344.400848,282.804199 342.675171,288.178253 341.115021,293.632965 
	C333.398529,320.611420 322.123962,345.886322 304.393036,367.885132 
	C298.730865,374.910187 292.154419,381.087311 283.291382,384.819031 
	C230.645767,385.000000 178.291550,385.000000 125.188515,384.798828 
	C116.066299,381.309692 109.202316,375.793884 102.791130,369.689545 
	C87.657967,355.280579 77.948868,337.341583 69.729279,318.454254 
	C64.410004,306.231384 58.852207,294.246979 49.485062,284.315460 
	C33.172611,267.020172 16.249033,250.282669 1.000000,232.000000 
	C1.000000,218.645767 1.000000,205.291550 1.000000,191.468658 
M319.097656,78.839211 
	C320.163544,74.820358 321.330048,70.824989 322.275085,66.777924 
	C324.448486,57.470558 321.859009,49.974014 315.098694,45.618931 
	C302.896637,37.758221 289.078735,43.176422 285.517426,57.440784 
	C277.701630,88.746361 270.105011,120.106674 262.293671,151.413391 
	C260.121826,160.117935 258.677338,169.054962 255.304276,177.404221 
	C251.875748,185.890915 242.222458,190.933945 233.772980,189.162689 
	C227.050949,187.753586 222.680191,180.695160 222.661026,171.095673 
	C222.637405,159.263031 222.664734,147.430267 222.669052,135.597565 
	C222.680878,103.266777 222.772186,70.935677 222.644150,38.605446 
	C222.614304,31.069355 219.439987,25.009348 212.076202,21.962139 
	C204.230713,18.715601 196.384705,20.510849 190.418167,26.238588 
	C186.264618,30.225916 185.475342,35.297657 185.447693,40.439419 
	C185.297211,68.437027 185.009552,96.442467 185.517090,124.431648 
	C185.794998,139.757019 186.135727,155.053665 185.335266,170.363541 
	C184.785889,180.871124 177.843094,188.923615 168.221390,190.149841 
	C159.636627,191.243912 152.814133,186.019165 149.557297,175.631027 
	C147.168518,168.011642 144.972412,160.331604 142.714157,152.671616 
	C133.257019,120.592804 123.809410,88.511192 114.353256,56.432091 
	C114.165115,55.793839 113.918587,55.172604 113.694099,54.545292 
	C109.845619,43.790993 101.077621,38.466301 91.922623,41.322868 
	C79.474091,45.207081 74.445763,53.695862 78.033951,65.737053 
	C89.435669,103.998711 101.031441,142.202515 112.530693,180.435150 
	C117.609100,197.319794 122.802292,214.172684 127.622734,231.131134 
	C130.467865,241.140366 126.492157,247.972229 117.376389,249.684875 
	C111.915192,250.710892 107.796211,247.739639 103.819183,244.638611 
	C86.869507,231.422302 69.959763,218.154678 52.988674,204.965973 
	C47.412952,200.632919 41.281673,197.299393 34.324207,195.731461 
	C20.325504,192.576752 11.307991,200.675003 13.478556,214.586197 
	C14.291741,219.797943 16.758966,224.330093 20.394350,228.198868 
	C26.782698,234.997345 33.028927,241.934280 39.555588,248.596802 
	C52.253086,261.558533 65.732231,273.795380 74.568764,290.062225 
	C81.173599,302.220795 86.914322,314.791626 93.042328,327.177460 
	C109.292427,360.021912 137.758530,383.905823 183.937897,376.263977 
	C199.810791,373.637268 216.111481,373.808289 232.280197,375.424377 
	C241.697815,376.365692 251.155640,377.176453 260.599396,375.144196 
	C277.447968,371.518463 289.684357,361.460480 298.743317,347.377563 
	C309.804840,330.181427 317.312775,311.278870 323.733246,291.963806 
	C327.670685,280.118622 330.958008,268.081024 337.235962,257.119324 
	C354.788513,226.471451 372.213531,195.750412 389.621704,165.020187 
	C392.568207,159.818756 395.734741,154.698364 397.182098,148.767197 
	C398.480255,143.447647 397.374176,138.830292 393.382141,135.067566 
	C383.999359,126.223717 371.243073,127.669197 364.167053,138.415817 
	C361.787842,142.029190 359.664398,145.814545 357.499329,149.564728 
	C345.171844,170.917557 332.959259,192.337418 320.509705,213.618729 
	C315.474670,222.225647 306.083618,225.412918 297.848694,221.872940 
	C290.231781,218.598618 287.012695,210.592438 289.387146,200.774094 
	C292.356995,188.493866 295.333191,176.215149 298.322723,163.939697 
	C305.166412,135.838394 312.019958,107.739487 319.097656,78.839211 
z"/>
</svg>