<svg version="1.1" id="Layer_1" xmlns="http://www.w3.org/2000/svg" xmlns:xlink="http://www.w3.org/1999/xlink" x="0px" y="0px" width="100%" viewBox="0 0 528 656" enable-background="new 0 0 528 656" xml:space="preserve" transform="matrix(-1,0,0,1,0,0)">
<path fill="#FFFFFF" opacity="1.000000" stroke="none" d="
M64.290543,472.566772 
	C63.256584,463.057373 58.968563,455.007935 56.124664,446.520172 
	C51.743599,433.444611 45.786800,420.852325 42.756485,407.381927 
	C39.947781,394.896606 41.752106,382.611084 47.331902,370.951416 
	C55.494511,353.894562 69.622269,344.517670 87.336395,339.857483 
	C97.110741,337.286102 106.980698,336.622040 116.887985,339.495117 
	C120.951088,340.673370 122.048882,338.568512 122.175613,334.750702 
	C122.742775,317.665039 128.473083,302.572754 141.901978,291.619110 
	C156.527527,279.689423 173.353333,273.964813 192.522751,277.383148 
	C193.669388,277.587616 194.832077,277.702484 195.987595,277.856720 
	C196.961197,277.986725 197.935257,278.113403 199.419769,278.308777 
	C200.277328,273.161957 197.916534,268.737213 196.908340,264.239929 
	C193.056915,247.059372 188.871735,229.951233 184.624588,212.862427 
	C179.900070,193.852844 174.865936,174.920044 170.165192,155.904739 
	C166.182556,139.794373 162.622726,123.579147 158.601624,107.478798 
	C156.459290,98.900948 154.598633,90.423553 154.806015,81.444267 
	C155.376266,56.751282 173.825272,34.694801 198.143738,29.481840 
	C207.678177,27.438015 217.011063,25.955107 226.761383,27.711533 
	C249.491135,31.806076 268.006744,47.644455 273.957428,70.554314 
	C280.218536,94.659325 285.507690,119.014954 291.491974,143.194153 
	C298.313690,170.757019 305.386749,198.258148 312.457428,225.758606 
	C314.266754,232.795715 316.479187,239.729172 318.774353,247.632965 
	C322.746429,240.601746 323.692963,233.511307 325.527954,226.786209 
	C331.121033,206.288239 336.499786,185.729843 341.757233,165.142700 
	C348.537750,138.591293 354.976501,111.952110 361.846069,85.424171 
	C365.499084,71.317352 368.184814,56.644180 379.492065,45.929962 
	C394.524841,31.685591 411.755585,25.317057 432.794220,29.311441 
	C446.480347,31.909893 458.641785,36.557732 468.458344,46.625702 
	C483.292786,61.840073 487.685089,80.180305 483.601074,100.503212 
	C478.759338,124.597153 473.180908,148.543320 467.896667,172.548019 
	C463.363403,193.141190 458.737000,213.714020 454.257477,234.318817 
	C449.423157,256.555511 444.732574,278.823364 439.931946,301.067474 
	C438.706421,306.746124 437.171631,312.359772 436.015991,318.051392 
	C434.830994,323.887726 437.822968,329.057007 439.295654,334.387512 
	C445.412415,356.528015 455.917419,376.708252 467.063080,396.678925 
	C473.637665,408.459106 477.012299,421.559692 479.581329,434.883301 
	C481.893158,446.872833 482.942139,458.863037 483.370697,471.043152 
	C483.899384,486.067993 478.289246,499.348816 473.291565,512.916138 
	C463.921692,538.352356 452.583374,562.746399 435.181030,583.823059 
	C411.761414,612.187439 381.632721,629.193115 345.628052,636.104675 
	C329.178772,639.262268 312.871704,637.414062 296.457703,635.517029 
	C277.426422,633.317566 258.344299,632.403992 239.148880,634.578857 
	C222.125626,636.507629 204.986832,637.859253 187.870407,635.226318 
	C165.505463,631.786011 145.464264,623.116638 128.048523,608.520325 
	C107.977341,591.698547 94.972404,570.004822 85.096733,546.203613 
	C76.600967,525.728149 70.456085,504.539581 66.435425,482.721680 
	C65.837288,479.475952 64.719406,476.308289 64.290543,472.566772 
M180.239716,485.685913 
	C173.934250,500.984222 162.985291,511.600403 147.630280,517.581421 
	C132.622711,523.427124 117.392403,524.809631 102.131844,518.409058 
	C101.877609,519.346863 101.690277,519.667603 101.731728,519.955322 
	C101.850189,520.777771 101.970047,521.619873 102.249779,522.396423 
	C110.839485,546.242737 121.597092,568.857422 140.518402,586.468506 
	C153.983490,599.001221 170.126831,606.839966 188.028946,610.481812 
	C205.196625,613.974182 222.590042,611.905334 239.736572,609.918823 
	C260.621674,607.499146 281.355072,608.863647 301.972107,611.330383 
	C319.005432,613.368286 335.514465,613.898254 352.287231,609.199280 
	C379.060974,601.698608 400.892181,587.293823 418.074768,565.560364 
	C432.933380,546.766418 442.616089,525.290710 450.714020,502.989777 
	C453.377716,495.654266 457.918274,488.763641 458.480133,480.951965 
	C459.445984,467.522583 459.129395,454.051575 456.332367,440.726196 
	C452.276215,421.402191 445.041138,403.517548 433.190430,387.630768 
	C422.435760,373.213379 409.567993,361.372375 392.242493,355.347534 
	C374.303650,349.109497 355.315247,348.913147 336.771790,346.192047 
	C320.497925,343.803955 304.192474,341.573547 287.848419,339.743073 
	C278.332733,338.677368 268.786926,336.525818 259.113312,339.235443 
	C245.378677,343.082672 236.327271,351.314880 233.715515,365.680725 
	C231.264099,379.164551 235.370895,390.095581 246.273239,398.733582 
	C255.458618,406.011200 266.586670,406.558899 277.257568,408.607666 
	C289.799835,411.015747 302.504028,412.574066 315.060303,414.917328 
	C327.554321,417.248932 331.101440,425.606232 324.363159,436.480011 
	C318.284912,446.288666 313.217010,456.580261 309.352692,467.414185 
	C302.422638,486.843140 298.511719,506.839355 299.242584,527.572083 
	C299.400635,532.055359 298.120361,535.812561 294.487000,538.515564 
	C290.765839,541.283875 286.620758,542.332031 282.304321,540.108765 
	C277.267303,537.514282 274.932251,533.163696 274.820404,527.505371 
	C274.307373,501.545563 279.211090,476.588165 288.726837,452.501038 
	C290.777069,447.311371 293.184906,442.262939 295.566864,436.832977 
	C290.212708,435.748779 285.597382,434.554596 280.785217,434.018372 
	C274.367035,433.303192 274.373718,433.054199 273.226562,439.469330 
	C265.527557,482.523193 217.719345,499.284302 187.453430,482.155457 
	C183.317810,479.814972 181.436951,480.643433 180.239716,485.685913 
M224.797607,274.876099 
	C228.130875,288.571564 230.563141,302.475464 236.912720,315.354492 
	C239.056732,319.703278 240.871246,320.288757 244.730804,318.468231 
	C253.206696,314.470245 262.206085,313.483276 271.496429,313.630920 
	C280.857666,313.779755 289.986664,315.554840 299.206543,316.741119 
	C309.430420,318.056671 319.682465,319.151520 329.912659,320.419830 
	C341.617188,321.870911 353.346222,323.179504 364.999939,324.970490 
	C376.620148,326.756348 388.444519,327.443878 399.657135,331.622192 
	C404.414062,333.394836 408.688293,336.443481 413.755249,337.336487 
	C414.735107,335.692657 413.690430,334.536926 413.418732,333.299622 
	C412.252991,327.990997 409.901031,322.873260 411.169708,317.198334 
	C413.165161,308.272491 415.051239,299.322296 417.006317,290.387390 
	C422.256958,266.391632 427.524384,242.399597 432.776184,218.404144 
	C437.500854,196.817139 442.212799,175.227356 446.931915,153.639145 
	C451.365448,133.357483 456.034485,113.123283 460.130280,92.773682 
	C461.976959,83.598564 459.772339,74.935616 453.952789,67.350594 
	C447.213379,58.566692 437.830353,55.018593 427.328186,53.194496 
	C410.778931,50.320095 393.924438,60.172031 389.637177,76.209282 
	C384.233246,96.423569 379.398926,116.789742 374.267090,137.077286 
	C369.662628,155.280045 365.108185,173.496826 360.313110,191.649673 
	C354.668518,213.018448 348.978912,234.379166 342.936249,255.637466 
	C339.528717,267.625214 336.054443,279.652588 330.243988,290.793823 
	C326.915344,297.176300 324.026855,298.762817 317.584015,298.240295 
	C312.250153,297.807739 309.929901,293.787079 307.876678,289.824249 
	C303.120300,280.644379 300.190857,270.751709 297.042328,260.934479 
	C288.408691,234.014603 281.925171,206.515167 275.005798,179.144867 
	C266.540161,145.658203 258.763580,111.997421 250.668884,78.416786 
	C249.488968,73.522003 247.678375,68.896988 244.449554,64.932030 
	C233.811646,51.868832 218.150864,48.054085 200.591339,54.258331 
	C183.876526,60.164112 175.551407,77.326065 180.517487,94.566078 
	C183.775925,105.877953 186.314789,117.399170 189.095154,128.846252 
	C193.796432,148.201935 198.396133,167.582336 203.110352,186.934845 
	C206.650162,201.466156 210.330032,215.963318 213.897171,230.488052 
	C217.465714,245.018631 220.971664,259.564606 224.797607,274.876099 
M180.583054,435.991058 
	C181.145309,437.558899 181.748306,439.113495 182.263519,440.696625 
	C187.397568,456.472534 201.009125,464.483948 212.509995,464.293488 
	C230.941193,463.988251 247.020264,452.884277 249.294586,433.174286 
	C249.705322,429.614777 249.225784,427.723114 245.714783,426.246552 
	C210.901321,411.605591 198.612228,375.161743 216.782776,341.785065 
	C218.399841,338.814789 218.746948,336.355743 217.618744,333.369598 
	C216.386246,330.107452 215.230118,326.812195 214.168335,323.490570 
	C209.306183,308.280060 192.335907,298.903870 178.697632,301.041901 
	C155.401413,304.693939 140.848953,324.392181 149.231476,347.345276 
	C159.893265,376.539429 169.960846,405.950623 180.583054,435.991058 
M159.212219,470.542786 
	C160.760422,464.146088 159.671860,457.981140 157.501511,451.936432 
	C150.090271,431.294830 142.670959,410.656158 135.212158,390.031738 
	C132.614685,382.849426 130.364197,375.484009 124.339417,370.130371 
	C113.951218,360.899414 102.464172,360.553589 89.844734,364.860809 
	C70.286072,371.536560 61.438545,389.040131 68.452171,408.479126 
	C76.292297,430.208679 84.396240,451.844879 92.036819,473.643860 
	C97.445984,489.076569 109.284874,498.547668 124.326385,497.647705 
	C141.653412,496.610992 155.209167,487.812927 159.212219,470.542786 
z"></path>
</svg>