<svg version="1.1" id="Layer_1" xmlns="http://www.w3.org/2000/svg" xmlns:xlink="http://www.w3.org/1999/xlink" x="0px" y="0px"
	 width="100%" viewBox="0 0 816 880" enable-background="new 0 0 816 880" xml:space="preserve">
<path fill="#FFFFFF" opacity="1.000000" stroke="none" 
	d="
M619.467957,881.000000 
	C614.976746,877.224243 613.437378,872.630493 613.603394,867.087402 
	C615.220398,813.116394 636.668579,768.740295 678.862732,735.120300 
	C699.645752,718.560730 720.362427,702.206726 736.418152,680.737793 
	C761.009399,647.855530 777.029968,611.417725 782.839600,570.604126 
	C784.744690,557.220764 785.611816,543.794800 785.624756,530.311584 
	C785.682190,470.485046 785.688049,410.658356 785.616150,350.831879 
	C785.601196,338.351227 782.545532,326.754944 774.206238,317.024536 
	C764.896667,306.162048 753.051392,300.378235 738.768677,300.352722 
	C675.942627,300.240509 613.116211,300.241028 550.290039,300.310028 
	C513.932556,300.349945 483.827942,325.674011 478.642303,361.613068 
	C471.963989,407.897247 508.096252,443.192505 545.530090,443.700134 
	C590.683105,444.312439 635.849060,443.955170 681.009399,444.055389 
	C683.997498,444.062012 687.006104,444.222382 689.968445,444.599762 
	C697.797302,445.597137 702.785278,451.673981 702.321838,459.432098 
	C701.880249,466.823578 696.175293,472.279877 688.402588,472.309387 
	C664.405640,472.400574 640.408081,472.318176 616.410950,472.378601 
	C606.823608,472.402740 606.759155,470.729218 606.922913,481.680237 
	C606.955261,483.844666 606.975464,486.020630 606.799500,488.174805 
	C605.929077,498.829559 600.419006,504.081299 589.693665,504.185730 
	C575.696533,504.322021 561.668335,503.672760 547.704163,504.372864 
	C484.136261,507.559998 439.338348,538.967468 412.369598,596.087097 
	C403.972595,613.871826 400.137299,632.968079 400.127869,652.733521 
	C400.126434,655.742981 399.814575,658.741211 398.613251,661.533936 
	C396.031464,667.535645 389.666962,671.005493 383.639496,669.792725 
	C376.388977,668.333862 371.726044,662.910461 371.718262,655.302002 
	C371.688293,625.956177 378.357330,598.121399 392.323273,572.361877 
	C419.591522,522.066650 461.698517,491.197205 517.458252,479.008972 
	C535.632629,475.036316 554.191833,475.450348 572.683594,475.663788 
	C576.047424,475.702606 576.048035,475.650116 578.302734,473.806946 
	C577.063782,471.391235 574.796753,472.463379 573.010376,472.390106 
	C560.875122,471.892303 548.726135,472.976257 536.580200,471.478699 
	C515.500610,468.879608 497.505371,459.956055 481.921509,445.821655 
	C477.349854,441.675232 473.093079,437.198792 469.605957,432.072144 
	C468.321167,430.183289 466.969208,429.645081 464.587585,430.186127 
	C421.568665,439.958588 386.896606,427.217621 360.826477,391.477448 
	C360.449982,390.961273 359.944153,390.539398 359.140869,389.699280 
	C340.046265,417.138458 314.347443,432.681519 280.729797,433.354126 
	C246.997787,434.029053 220.952042,419.062927 200.551224,392.045319 
	C184.277710,417.703308 161.746964,433.526459 131.913055,437.581085 
	C102.331802,441.601318 76.476715,432.558868 54.277420,412.925690 
	C52.899723,414.642639 53.307705,416.022400 53.307518,417.294891 
	C53.303493,444.791718 52.730930,472.306000 53.530125,499.780243 
	C54.279339,525.536133 57.551971,551.110840 62.732311,576.409485 
	C78.479752,653.313354 110.599838,722.584167 159.501938,784.003296 
	C163.258499,788.721436 165.088333,793.721375 165.086594,799.571167 
	C165.078659,826.401855 165.057114,853.232605 165.020233,880.531616 
	C155.979111,881.000000 146.958206,881.000000 137.365189,880.540771 
	C136.754166,855.417297 136.656540,830.752991 136.739655,806.089172 
	C136.752121,802.389343 135.819641,799.442688 133.519928,796.502625 
	C107.732124,763.534668 86.497704,727.838806 69.503761,689.581726 
	C40.951550,625.304260 25.636049,557.966919 25.089378,487.718536 
	C24.326815,389.727539 24.841324,291.726562 24.833759,193.729874 
	C24.833336,188.246078 24.860529,182.793823 25.509798,177.288010 
	C30.427155,135.588638 64.544281,97.827454 114.049324,94.836479 
	C138.831573,93.339203 160.932678,101.284828 180.091080,117.196495 
	C181.309891,118.208755 182.298630,119.735970 184.539291,119.684578 
	C188.044495,78.295258 207.764175,47.935619 247.368240,33.578762 
	C287.018005,19.205338 321.452972,30.644402 350.553345,59.623833 
	C351.344940,59.025715 351.706787,58.884483 351.849335,58.623470 
	C352.885101,56.726978 353.903381,54.819866 354.878021,52.891243 
	C363.041962,36.736195 374.751434,23.902025 390.177216,14.323243 
	C401.265076,7.438124 413.438599,3.769358 426.000000,1.000000 
	C434.687561,1.000000 443.375122,1.000000 452.859009,1.168798 
	C455.102234,1.722694 456.533783,2.183390 457.998413,2.481684 
	C484.996826,7.980452 505.267029,23.058170 519.845703,46.108349 
	C522.478821,50.271473 524.524353,54.806141 527.106628,59.669106 
	C530.164062,56.771618 532.882324,54.149590 535.649475,51.580246 
	C563.912720,25.337532 606.386841,18.805704 640.669800,36.394558 
	C674.793457,53.901714 692.640137,82.537575 693.182373,120.794846 
	C693.864868,168.943436 693.346558,217.108994 693.351929,265.267242 
	C693.352661,271.785675 693.367615,271.803833 700.006409,271.818176 
	C708.671570,271.836914 717.338135,271.924103 726.001465,271.796844 
	C735.848938,271.652191 745.664124,272.037811 755.256042,274.331146 
	C789.972412,282.631470 813.316833,312.258698 813.337524,347.959412 
	C813.373291,409.448639 813.282532,470.938019 813.393738,532.427063 
	C813.421143,547.596558 812.755188,562.667725 810.376770,577.672668 
	C804.371460,615.558899 790.794312,650.492188 769.749329,682.524170 
	C750.475647,711.859985 725.317322,735.208862 697.496765,756.450012 
	C662.499268,783.170837 644.206848,819.547058 642.059082,863.719727 
	C641.755798,869.957520 641.294128,876.000061 637.000000,881.000000 
	C631.311951,881.000000 625.623962,881.000000 619.467957,881.000000 
M260.757111,402.734344 
	C271.346863,405.362030 281.899628,406.503143 292.808380,404.100861 
	C323.799042,397.276215 345.324402,369.041931 345.105469,337.876312 
	C344.604523,266.575317 344.942596,195.268387 344.945587,123.963882 
	C344.945831,117.956642 344.496857,112.002678 343.057129,106.148895 
	C335.188721,74.156204 303.973328,52.393791 271.764954,56.451035 
	C238.102814,60.691399 213.372772,88.210213 213.344269,121.712128 
	C213.282761,194.016190 213.287598,266.320374 213.334061,338.624451 
	C213.353424,368.723236 231.221985,393.120972 260.757111,402.734344 
M449.685822,375.408722 
	C449.728271,371.245148 449.364929,367.030945 449.877228,362.925995 
	C454.076691,329.276703 470.025055,303.067169 499.636414,285.866974 
	C503.634003,283.544891 505.144043,281.000427 505.135040,276.433807 
	C505.016602,216.293945 504.855652,156.152725 505.150330,96.014015 
	C505.358978,53.442429 469.714630,29.065378 440.622711,28.869478 
	C403.593964,28.620131 373.378418,57.572155 373.354462,94.654007 
	C373.301880,175.951523 373.311493,257.249084 373.338226,338.546631 
	C373.348816,370.814423 394.682648,397.390503 426.177429,404.249359 
	C435.503693,406.280396 444.863556,406.126251 454.362793,403.240723 
	C451.936920,394.125397 450.080841,385.370209 449.685822,375.408722 
M163.274139,140.230835 
	C148.181168,126.415398 130.142349,121.078094 110.216270,123.601860 
	C77.531532,127.741585 53.400356,155.635101 53.324528,188.632553 
	C53.205078,240.609772 53.428593,292.587921 53.257320,344.564850 
	C53.136051,381.366425 84.273422,410.308594 118.046501,410.169464 
	C154.528641,410.019165 184.344391,382.605255 184.705582,346.081207 
	C185.224503,293.609344 184.910980,241.128510 184.824646,188.651718 
	C184.793442,169.686890 177.651672,153.683197 163.274139,140.230835 
M533.343506,180.499939 
	C533.343506,211.247375 533.343506,241.994812 533.343506,273.167389 
	C543.158447,272.041016 552.262939,271.783051 561.391357,271.806030 
	C594.032715,271.888245 626.675049,271.720978 659.315125,271.934509 
	C664.452759,271.968109 665.776855,270.379944 665.722473,265.395294 
	C665.477173,242.915344 665.809875,220.429138 665.573547,197.948975 
	C665.283081,170.322433 666.522522,142.686295 664.800964,115.066948 
	C662.646057,80.493080 629.710693,48.633869 587.853760,55.865101 
	C555.539124,61.447800 533.360657,88.869560 533.350037,121.544563 
	C533.343750,140.863022 533.345947,160.181473 533.343506,180.499939 
z"/>
</svg>