<svg version="1.1" id="Layer_1" xmlns="http://www.w3.org/2000/svg" xmlns:xlink="http://www.w3.org/1999/xlink" x="0px" y="0px"
	 width="100%" viewBox="0 0 496 672" enable-background="new 0 0 496 672" xml:space="preserve">
<path fill="#FFFFFF" opacity="1.000000" stroke="none" 
	d="
M1.000000,287.468658 
	C5.477509,279.423615 9.598321,271.642853 16.387066,265.673828 
	C27.578150,255.834030 40.200706,250.657867 55.392673,250.517166 
	C75.773323,250.328430 82.413025,252.886902 97.384605,261.555054 
	C104.727997,240.870865 117.961105,225.678848 139.858139,220.599930 
	C160.933746,215.711563 180.949173,218.653229 198.361099,233.086502 
	C222.198532,195.302658 254.176895,190.836411 292.322479,208.663086 
	C293.117279,206.638077 292.742188,204.136703 292.743347,201.725769 
	C292.765167,156.568466 293.277985,111.402565 292.547089,66.256935 
	C292.077850,37.274536 314.027405,9.593858 342.758026,5.270140 
	C364.642700,1.976684 386.516907,3.651954 403.891907,20.708887 
	C415.369873,31.976768 423.129028,45.315697 423.191498,61.573921 
	C423.486511,138.390015 423.334473,215.207809 423.350708,292.024994 
	C423.354004,307.686798 423.476654,323.349213 423.354034,339.009857 
	C423.328156,342.316345 424.924774,344.101196 427.281067,345.962524 
	C437.473114,354.013611 448.065063,361.777985 456.008667,372.150360 
	C467.016357,386.523651 472.703339,403.434082 477.407379,420.707672 
	C482.150269,438.124023 484.518616,455.881989 484.998199,473.874084 
	C485.426788,489.951752 481.006226,504.855835 474.408752,519.510437 
	C462.868164,545.145020 449.697754,569.695251 431.537354,591.299744 
	C407.223938,620.224243 377.493713,640.775940 340.590149,650.548401 
	C321.560242,655.587769 302.646149,655.712219 283.258545,652.936951 
	C260.203369,649.636658 237.037704,647.807312 213.702393,651.754761 
	C190.022797,655.760437 166.141418,657.535828 142.094238,655.154419 
	C91.549652,650.148865 57.177071,623.388916 37.207447,577.281982 
	C28.112209,556.282349 22.390350,534.342224 18.552919,511.783386 
	C14.868059,490.121521 11.976202,468.393677 10.673642,446.477020 
	C10.132919,437.378937 4.926116,430.336334 1.238786,422.248596 
	C1.000000,377.312439 1.000000,332.624878 1.000000,287.468658 
M322.663208,629.287476 
	C323.960480,628.980896 325.250000,628.635681 326.556122,628.373352 
	C357.982971,622.063904 384.156494,606.474426 405.929199,583.236267 
	C426.244598,561.553467 440.086578,535.861877 452.098480,508.954987 
	C457.542999,496.759155 461.445679,484.581421 460.647278,470.972015 
	C459.618317,453.433716 456.740692,436.280487 451.611115,419.520782 
	C446.388519,402.457001 439.719604,386.218262 424.248962,375.450409 
	C420.999756,373.188843 418.724152,369.711304 414.908203,368.082428 
	C385.674927,355.603882 356.513031,342.956390 327.219391,330.621552 
	C315.759949,325.796295 304.084442,325.439087 292.284180,330.239441 
	C277.823456,336.122070 268.214600,358.599915 273.748077,373.228790 
	C278.297333,385.255646 286.533386,393.243835 297.906891,398.443115 
	C313.043579,405.362671 328.207794,412.222046 343.364685,419.097351 
	C348.193451,421.287689 351.018402,424.949097 351.222321,430.288940 
	C351.420990,435.491730 348.642700,439.108459 344.359741,441.650208 
	C331.832275,449.084778 320.556213,458.104767 310.219391,468.339111 
	C293.259857,485.130371 280.058136,504.183258 273.972473,527.647949 
	C272.231812,534.359497 265.615173,537.741028 258.539124,536.033264 
	C252.635620,534.608521 248.714157,527.985168 250.149765,521.564270 
	C250.836075,518.494690 251.752762,515.460754 252.784454,512.486755 
	C262.649963,484.048553 279.938782,460.828400 302.781342,441.523712 
	C306.043427,438.766754 309.257751,435.953400 312.394623,433.251892 
	C311.409424,430.996033 309.592285,430.813843 308.140656,430.143738 
	C301.794403,427.214050 295.341736,424.502228 289.091400,421.383270 
	C286.176971,419.928955 283.854340,419.796783 280.723419,421.103973 
	C265.211182,427.580597 249.413528,427.648193 233.430222,422.604004 
	C226.029022,420.268219 219.912704,415.690247 213.151886,411.187256 
	C203.388474,430.207062 188.513702,442.247650 167.816696,444.933167 
	C147.690399,447.544678 128.565598,444.104828 112.916893,428.481720 
	C104.872597,442.251312 94.051582,451.444489 79.807266,456.287170 
	C65.573051,461.126404 51.075996,459.416687 36.405071,456.981506 
	C36.405071,460.624329 36.031448,463.654388 36.465439,466.563995 
	C39.379162,486.098846 41.398811,505.750275 45.932491,525.063538 
	C49.827530,541.656189 54.768280,557.779907 62.319065,573.041687 
	C72.545822,593.712158 86.675781,610.823608 107.972252,620.892700 
	C124.037247,628.488464 141.359161,630.619446 158.860306,631.683899 
	C179.832413,632.959412 200.286713,628.361267 220.892624,625.862305 
	C239.646667,623.587952 258.115356,625.376770 276.625122,627.433167 
	C291.663239,629.103882 306.627838,631.516724 322.663208,629.287476 
M375.729248,324.704285 
	C383.376801,327.656738 390.613983,331.738190 398.617889,333.658936 
	C399.879303,331.630127 399.605774,329.926849 399.605804,328.300781 
	C399.607300,241.468811 399.596283,154.636856 399.566742,67.804901 
	C399.565033,62.764244 398.535431,57.857582 396.708313,53.194237 
	C389.195099,34.018784 371.058929,26.255100 350.771790,28.782465 
	C328.529663,31.553377 316.072876,51.181915 316.793579,67.944351 
	C317.400909,82.070778 316.433807,96.258461 316.415924,110.419350 
	C316.352539,160.585159 316.361786,210.751129 316.426392,260.916931 
	C316.442261,273.244568 316.760162,285.572021 316.969757,297.899048 
	C317.006104,300.037384 316.781403,302.209778 319.814423,302.899506 
	C339.284668,307.327271 356.677246,317.100769 375.729248,324.704285 
M120.014687,282.530457 
	C120.040733,316.683655 120.055000,350.836884 120.113419,384.990021 
	C120.118515,387.972534 119.978500,390.958984 120.699615,393.932373 
	C124.216522,408.433716 137.135727,421.874908 158.142502,421.191498 
	C178.488190,420.529602 193.833374,406.275024 193.931763,386.075378 
	C194.107864,349.923798 194.020981,313.770935 194.045410,277.618591 
	C194.048370,273.245331 193.205078,269.039093 191.554321,264.994629 
	C182.563156,242.965637 157.855652,238.019928 139.480209,246.709915 
	C125.308266,253.412003 119.432159,265.973022 120.014687,282.530457 
M93.683456,411.019867 
	C94.437126,407.283569 95.800171,403.709625 95.791710,399.774872 
	C95.726135,369.279266 95.779366,338.783447 95.780128,308.287689 
	C95.780243,303.915283 95.029579,299.649323 93.245003,295.655334 
	C86.510735,280.583740 74.450729,275.273163 58.408710,274.721710 
	C36.180218,273.957550 21.089670,291.688782 21.232899,311.672333 
	C21.434740,339.833740 21.334417,367.997437 21.323627,396.160156 
	C21.322025,400.343109 21.794716,404.379089 22.838625,408.481232 
	C27.915005,428.429382 49.572872,440.559631 68.965843,434.218170 
	C80.574883,430.422028 89.050102,423.360260 93.683456,411.019867 
M218.279938,362.454681 
	C216.730972,380.187683 227.498657,397.242340 247.616760,400.923706 
	C251.594437,401.651550 255.657822,401.652893 259.618683,400.128113 
	C258.810181,396.658112 256.722107,394.617828 255.329742,392.194885 
	C249.733643,382.456909 245.976944,371.775970 247.262512,360.774933 
	C250.309189,334.703247 262.211792,314.403503 288.524017,305.374634 
	C291.891357,304.219147 292.790497,302.488403 292.765381,299.218658 
	C292.661835,285.732910 293.111633,272.233917 292.665466,258.762756 
	C292.344208,249.064224 288.974609,240.294693 281.836151,233.219772 
	C273.802094,225.257248 264.091064,222.951004 253.085037,223.192032 
	C233.474625,223.621490 218.322311,238.401871 218.280975,258.069153 
	C218.208527,292.535065 218.271347,327.001251 218.279938,362.454681 
z"/>
</svg>