<svg version="1.1" id="Layer_1" xmlns="http://www.w3.org/2000/svg" xmlns:xlink="http://www.w3.org/1999/xlink" x="0px" y="0px"
	 width="100%" viewBox="0 0 664 740" enable-background="new 0 0 664 740" xml:space="preserve">
<path fill="#171B1D" opacity="1.000000" stroke="none" 
	d="
M665.000000,270.000000 
	C665.000000,427.333344 665.000000,584.166687 665.000000,741.000000 
	C443.666656,741.000000 222.333328,741.000000 1.000000,741.000000 
	C1.000000,494.333344 1.000000,247.666672 1.000000,1.000000 
	C222.333328,1.000000 443.666656,1.000000 665.000000,1.000000 
	C665.000000,90.500000 665.000000,180.000000 665.000000,270.000000 
M164.916824,624.580017 
	C154.714584,609.211426 140.801285,597.615051 126.457809,586.385010 
	C79.602951,549.700684 55.361767,501.302246 54.198971,442.041046 
	C53.241207,393.229340 54.084854,344.384033 53.907513,295.554413 
	C53.838467,276.542969 68.199371,257.407562 91.091827,257.475311 
	C139.421722,257.618378 187.753326,257.332245 236.082352,257.582764 
	C276.524872,257.792389 298.766174,293.847656 290.913818,326.679504 
	C285.052032,351.188446 264.105591,368.124603 238.461060,368.428650 
	C203.968170,368.837616 169.468887,368.691254 134.972809,368.872498 
	C131.846298,368.888916 128.577240,369.089020 125.627586,370.012543 
	C118.506157,372.242157 115.761414,382.002411 121.195259,386.989594 
	C123.704132,389.292236 128.005066,390.602020 131.529083,390.676483 
	C148.853607,391.042664 166.190491,390.773102 183.522202,390.871368 
	C192.787888,390.923889 192.271667,389.061646 192.444962,399.592407 
	C192.646011,411.809265 196.500992,415.398895 208.924637,415.525665 
	C220.086502,415.639557 231.278458,415.404541 242.401993,416.148346 
	C267.255127,417.810272 290.326385,425.254272 309.265594,441.778931 
	C336.406464,465.459564 352.532471,494.946320 352.944214,531.858276 
	C353.028534,539.418457 357.505188,544.081421 363.969513,544.004822 
	C370.553223,543.926819 375.009583,539.099854 374.849854,531.734619 
	C373.830414,484.732147 353.744751,447.334686 316.291718,419.674622 
	C288.333710,399.026886 256.092865,391.525299 221.564728,393.259796 
	C219.399475,393.368561 217.203430,392.864014 215.021713,392.644806 
	C215.074982,392.044434 215.128250,391.444061 215.181519,390.843689 
	C222.645248,390.843689 230.111786,390.976410 237.572220,390.819305 
	C262.013458,390.304688 281.955719,380.377563 297.355713,361.513519 
	C299.858795,358.447357 302.119232,357.787262 305.856659,358.529022 
	C333.411041,363.997498 357.328186,357.538391 376.527100,336.315125 
	C379.252930,333.301849 381.772736,330.102112 384.594238,326.743011 
	C399.602234,348.415802 419.638763,360.074768 445.787506,360.504669 
	C471.940125,360.934601 491.889893,349.090454 507.637848,328.452637 
	C520.327942,348.241760 537.391418,360.527039 560.297180,363.692688 
	C583.239990,366.863464 603.389893,360.388885 621.348755,344.305023 
	C621.563110,346.721985 621.794495,348.137238 621.797974,349.553070 
	C621.838257,365.718567 621.901917,381.884369 621.845032,398.049652 
	C621.758057,422.765411 619.345276,447.245605 614.374512,471.476044 
	C603.145325,526.213196 581.070618,576.119141 547.935852,621.122620 
	C532.975952,641.441162 535.166443,634.440369 535.041931,661.222595 
	C534.971680,676.341309 535.029297,691.460571 535.029297,706.768677 
	C542.382812,706.768677 549.282715,706.768677 556.432190,706.768677 
	C556.531677,704.899475 556.682983,703.265625 556.695679,701.630676 
	C556.814453,686.299194 557.227478,670.960205 556.870483,655.639282 
	C556.704712,648.525146 558.871765,642.979614 563.049683,637.345581 
	C613.102844,569.847168 641.583618,494.320831 643.131104,410.071960 
	C644.606079,329.770416 644.205505,249.420517 643.540649,169.100891 
	C643.299561,139.985138 628.688049,117.742050 602.096741,105.224823 
	C574.829285,92.389313 548.720154,96.037117 524.772644,114.456726 
	C523.437866,115.483398 522.035950,116.422813 520.023254,117.861923 
	C516.780273,85.195801 502.307007,61.671028 471.321045,50.589020 
	C440.326508,39.503956 413.966644,48.286278 390.963593,70.916679 
	C376.422821,42.690807 355.072784,25.326933 322.800049,25.250328 
	C290.386383,25.173388 268.611969,42.103226 254.272964,70.570404 
	C252.451431,68.871513 250.928360,67.381493 249.332916,65.973511 
	C228.364120,47.468681 204.538773,40.457798 177.199844,48.486732 
	C146.535797,57.492195 126.196404,83.813354 125.797180,115.840782 
	C125.325684,153.665604 125.440575,191.498566 125.478722,229.327820 
	C125.483200,233.767029 124.402527,235.357208 119.636681,235.288589 
	C108.492416,235.128113 97.306168,235.211502 86.194077,236.000854 
	C55.853661,238.156097 32.588428,262.744934 32.433674,293.171936 
	C32.179394,343.167175 32.160828,393.166077 32.459377,443.160919 
	C32.693581,482.380524 43.671520,518.558716 64.862648,551.615295 
	C79.725502,574.800293 99.268356,593.473816 120.997116,610.042175 
	C135.118561,620.809937 146.604507,633.740784 154.322220,649.861633 
	C161.180969,664.188354 164.263092,679.387146 165.219421,695.147522 
	C165.898453,706.337891 166.758759,707.031982 177.185928,707.030884 
	C185.146271,707.030029 187.372757,704.892883 187.132751,696.741150 
	C186.372498,670.918762 179.778671,646.845032 164.916824,624.580017 
z"/>
<path fill="#FCFCFC" opacity="1.000000" stroke="none" 
	d="
M165.097382,624.892090 
	C179.778671,646.845032 186.372498,670.918762 187.132751,696.741150 
	C187.372757,704.892883 185.146271,707.030029 177.185928,707.030884 
	C166.758759,707.031982 165.898453,706.337891 165.219421,695.147522 
	C164.263092,679.387146 161.180969,664.188354 154.322220,649.861633 
	C146.604507,633.740784 135.118561,620.809937 120.997116,610.042175 
	C99.268356,593.473816 79.725502,574.800293 64.862648,551.615295 
	C43.671520,518.558716 32.693581,482.380524 32.459377,443.160919 
	C32.160828,393.166077 32.179394,343.167175 32.433674,293.171936 
	C32.588428,262.744934 55.853661,238.156097 86.194077,236.000854 
	C97.306168,235.211502 108.492416,235.128113 119.636681,235.288589 
	C124.402527,235.357208 125.483200,233.767029 125.478722,229.327820 
	C125.440575,191.498566 125.325684,153.665604 125.797180,115.840782 
	C126.196404,83.813354 146.535797,57.492195 177.199844,48.486732 
	C204.538773,40.457798 228.364120,47.468681 249.332916,65.973511 
	C250.928360,67.381493 252.451431,68.871513 254.272964,70.570404 
	C268.611969,42.103226 290.386383,25.173388 322.800049,25.250328 
	C355.072784,25.326933 376.422821,42.690807 390.963593,70.916679 
	C413.966644,48.286278 440.326508,39.503956 471.321045,50.589020 
	C502.307007,61.671028 516.780273,85.195801 520.023254,117.861923 
	C522.035950,116.422813 523.437866,115.483398 524.772644,114.456726 
	C548.720154,96.037117 574.829285,92.389313 602.096741,105.224823 
	C628.688049,117.742050 643.299561,139.985138 643.540649,169.100891 
	C644.205505,249.420517 644.606079,329.770416 643.131104,410.071960 
	C641.583618,494.320831 613.102844,569.847168 563.049683,637.345581 
	C558.871765,642.979614 556.704712,648.525146 556.870483,655.639282 
	C557.227478,670.960205 556.814453,686.299194 556.695679,701.630676 
	C556.682983,703.265625 556.531677,704.899475 556.432190,706.768677 
	C549.282715,706.768677 542.382812,706.768677 535.029297,706.768677 
	C535.029297,691.460571 534.971680,676.341309 535.041931,661.222595 
	C535.166443,634.440369 532.975952,641.441162 547.935852,621.122620 
	C581.070618,576.119141 603.145325,526.213196 614.374512,471.476044 
	C619.345276,447.245605 621.758057,422.765411 621.845032,398.049652 
	C621.901917,381.884369 621.838257,365.718567 621.797974,349.553070 
	C621.794495,348.137238 621.563110,346.721985 621.348755,344.305023 
	C603.389893,360.388885 583.239990,366.863464 560.297180,363.692688 
	C537.391418,360.527039 520.327942,348.241760 507.637848,328.452637 
	C491.889893,349.090454 471.940125,360.934601 445.787506,360.504669 
	C419.638763,360.074768 399.602234,348.415802 384.594238,326.743011 
	C381.772736,330.102112 379.252930,333.301849 376.527100,336.315125 
	C357.328186,357.538391 333.411041,363.997498 305.856659,358.529022 
	C302.119232,357.787262 299.858795,358.447357 297.355713,361.513519 
	C281.955719,380.377563 262.013458,390.304688 237.572220,390.819305 
	C230.111786,390.976410 222.645248,390.843689 215.181519,390.843689 
	C215.128250,391.444061 215.074982,392.044434 215.021713,392.644806 
	C217.203430,392.864014 219.399475,393.368561 221.564728,393.259796 
	C256.092865,391.525299 288.333710,399.026886 316.291718,419.674622 
	C353.744751,447.334686 373.830414,484.732147 374.849854,531.734619 
	C375.009583,539.099854 370.553223,543.926819 363.969513,544.004822 
	C357.505188,544.081421 353.028534,539.418457 352.944214,531.858276 
	C352.532471,494.946320 336.406464,465.459564 309.265594,441.778931 
	C290.326385,425.254272 267.255127,417.810272 242.401993,416.148346 
	C231.278458,415.404541 220.086502,415.639557 208.924637,415.525665 
	C196.500992,415.398895 192.646011,411.809265 192.444962,399.592407 
	C192.271667,389.061646 192.787888,390.923889 183.522202,390.871368 
	C166.190491,390.773102 148.853607,391.042664 131.529083,390.676483 
	C128.005066,390.602020 123.704132,389.292236 121.195259,386.989594 
	C115.761414,382.002411 118.506157,372.242157 125.627586,370.012543 
	C128.577240,369.089020 131.846298,368.888916 134.972809,368.872498 
	C169.468887,368.691254 203.968170,368.837616 238.461060,368.428650 
	C264.105591,368.124603 285.052032,351.188446 290.913818,326.679504 
	C298.766174,293.847656 276.524872,257.792389 236.082352,257.582764 
	C187.753326,257.332245 139.421722,257.618378 91.091827,257.475311 
	C68.199371,257.407562 53.838467,276.542969 53.907513,295.554413 
	C54.084854,344.384033 53.241207,393.229340 54.198971,442.041046 
	C55.361767,501.302246 79.602951,549.700684 126.457809,586.385010 
	C140.801285,597.615051 154.714584,609.211426 165.097382,624.892090 
M417.700531,77.127579 
	C402.432007,88.039970 395.574127,102.948006 395.611420,121.633438 
	C395.719604,175.938950 395.524292,230.245041 395.486176,284.550934 
	C395.483948,287.709137 395.686920,290.881561 396.018616,294.023743 
	C398.719910,319.613586 423.630951,340.865906 448.522797,338.869415 
	C477.257568,336.564728 497.511475,315.373596 497.645325,286.494568 
	C497.901672,231.190002 497.874420,175.882797 497.642151,120.578033 
	C497.556824,100.262474 489.121185,84.123032 470.790497,74.298683 
	C452.951782,64.738029 435.342163,65.981163 417.700531,77.127579 
M360.985870,64.541969 
	C351.385773,53.900520 339.356384,48.140488 325.136902,47.128105 
	C299.973419,45.336540 271.002380,65.693306 271.238251,100.097626 
	C271.548798,145.402267 271.364929,190.710709 271.260193,236.017212 
	C271.247803,241.383163 273.106079,244.750061 277.814850,247.719650 
	C303.044159,263.630554 314.784363,286.994354 314.116058,316.569458 
	C313.960663,323.446686 312.332672,330.290619 311.318115,337.613007 
	C314.399994,338.073334 317.485046,338.880341 320.585205,338.943451 
	C350.589111,339.554352 373.526428,316.580200 373.589691,285.541351 
	C373.715332,223.910797 373.626526,162.279831 373.629303,100.649033 
	C373.629913,87.400764 370.052063,75.378746 360.985870,64.541969 
M535.108704,134.602737 
	C526.080078,143.653931 520.106567,154.362030 520.035522,167.287582 
	C519.801025,209.918793 519.889954,252.552597 520.061829,295.184570 
	C520.102539,305.277008 523.793213,314.395782 529.820679,322.431671 
	C542.906799,339.878296 566.073181,346.761963 587.539307,339.765320 
	C607.217102,333.351562 621.724792,313.276428 621.793884,291.704529 
	C621.920776,252.068817 621.849670,212.432251 621.737488,172.796371 
	C621.725769,168.668259 621.196594,164.478653 620.374695,160.425613 
	C612.528137,121.731544 564.684875,106.327332 535.108704,134.602737 
M214.422607,69.922867 
	C189.626648,61.721283 163.608994,72.676163 152.178345,95.991936 
	C147.068298,106.415169 147.104568,117.608139 147.051987,128.739075 
	C146.896133,161.734711 146.967163,194.731400 146.944122,227.727676 
	C146.938980,235.076187 147.379868,235.448349 154.946793,235.415894 
	C180.776489,235.305130 206.606415,235.186722 232.436172,235.201981 
	C238.039856,235.205292 243.643219,235.752106 249.238464,236.048141 
	C249.385223,235.055862 249.518204,234.576233 249.518250,234.096619 
	C249.521912,195.934021 249.860275,157.767090 249.382751,119.610390 
	C249.085419,95.851692 237.944504,78.767441 214.422607,69.922867 
z"/>
<path fill="#181C1E" opacity="1.000000" stroke="none" 
	d="
M418.007172,76.937874 
	C435.342163,65.981163 452.951782,64.738029 470.790497,74.298683 
	C489.121185,84.123032 497.556824,100.262474 497.642151,120.578033 
	C497.874420,175.882797 497.901672,231.190002 497.645325,286.494568 
	C497.511475,315.373596 477.257568,336.564728 448.522797,338.869415 
	C423.630951,340.865906 398.719910,319.613586 396.018616,294.023743 
	C395.686920,290.881561 395.483948,287.709137 395.486176,284.550934 
	C395.524292,230.245041 395.719604,175.938950 395.611420,121.633438 
	C395.574127,102.948006 402.432007,88.039970 418.007172,76.937874 
z"/>
<path fill="#191D1F" opacity="1.000000" stroke="none" 
	d="
M361.231201,64.801605 
	C370.052063,75.378746 373.629913,87.400764 373.629303,100.649033 
	C373.626526,162.279831 373.715332,223.910797 373.589691,285.541351 
	C373.526428,316.580200 350.589111,339.554352 320.585205,338.943451 
	C317.485046,338.880341 314.399994,338.073334 311.318115,337.613007 
	C312.332672,330.290619 313.960663,323.446686 314.116058,316.569458 
	C314.784363,286.994354 303.044159,263.630554 277.814850,247.719650 
	C273.106079,244.750061 271.247803,241.383163 271.260193,236.017212 
	C271.364929,190.710709 271.548798,145.402267 271.238251,100.097626 
	C271.002380,65.693306 299.973419,45.336540 325.136902,47.128105 
	C339.356384,48.140488 351.385773,53.900520 361.231201,64.801605 
z"/>
<path fill="#181C1E" opacity="1.000000" stroke="none" 
	d="
M535.361450,134.354797 
	C564.684875,106.327332 612.528137,121.731544 620.374695,160.425613 
	C621.196594,164.478653 621.725769,168.668259 621.737488,172.796371 
	C621.849670,212.432251 621.920776,252.068817 621.793884,291.704529 
	C621.724792,313.276428 607.217102,333.351562 587.539307,339.765320 
	C566.073181,346.761963 542.906799,339.878296 529.820679,322.431671 
	C523.793213,314.395782 520.102539,305.277008 520.061829,295.184570 
	C519.889954,252.552597 519.801025,209.918793 520.035522,167.287582 
	C520.106567,154.362030 526.080078,143.653931 535.361450,134.354797 
z"/>
<path fill="#181C1E" opacity="1.000000" stroke="none" 
	d="
M214.811249,70.012421 
	C237.944504,78.767441 249.085419,95.851692 249.382751,119.610390 
	C249.860275,157.767090 249.521912,195.934021 249.518250,234.096619 
	C249.518204,234.576233 249.385223,235.055862 249.238464,236.048141 
	C243.643219,235.752106 238.039856,235.205292 232.436172,235.201981 
	C206.606415,235.186722 180.776489,235.305130 154.946793,235.415894 
	C147.379868,235.448349 146.938980,235.076187 146.944122,227.727676 
	C146.967163,194.731400 146.896133,161.734711 147.051987,128.739075 
	C147.104568,117.608139 147.068298,106.415169 152.178345,95.991936 
	C163.608994,72.676163 189.626648,61.721283 214.811249,70.012421 
z"/>
</svg>