<svg version="1.1" id="Layer_1" xmlns="http://www.w3.org/2000/svg" xmlns:xlink="http://www.w3.org/1999/xlink" x="0px" y="0px"
	 width="100%" viewBox="0 0 64 78" enable-background="new 0 0 64 78" xml:space="preserve">
<path fill="none" opacity="1.000000" stroke="#FFFFFF" stroke-linecap="round" stroke-linejoin="round" stroke-width="8.000000"
	d="
M32.000000,27.000000 
	C37.759735,23.616804 44.032051,25.411182 49.987267,25.734516 
	C53.242687,25.911266 54.232319,30.190363 54.358143,33.006340 
	C54.772697,42.284229 54.622448,51.718338 48.401783,59.420677 
	C45.843941,62.587761 45.251671,65.792168 45.500000,69.500000 
"/>
<path fill="none" opacity="1.000000" stroke="#FFFFFF" stroke-linecap="round" stroke-linejoin="round" stroke-width="8.000000"
	d="
M21.000000,22.000000 
	C15.074739,21.198515 14.326589,21.583693 14.562370,26.997284 
	C14.903537,34.830524 13.585896,42.737396 15.510503,50.497395 
	C16.071533,52.759460 16.365152,55.146469 18.002071,56.998169 
	C21.189133,60.603394 21.945942,64.881805 21.500000,69.500000 
"/>
<path fill="none" opacity="1.000000" stroke="#FFFFFF" stroke-linecap="round" stroke-linejoin="round" stroke-width="8.000000"
	d="
M46.000000,24.500000 
	C44.948338,21.379911 45.561653,18.162153 45.559814,14.999965 
	C45.558285,12.376052 44.624771,11.429762 41.999805,11.437925 
	C39.379520,11.446075 37.330311,12.886383 37.690125,14.967122 
	C38.249126,18.199701 37.343388,21.359119 38.000000,24.500000 
"/>
<path fill="none" opacity="1.000000" stroke="#FFFFFF" stroke-linecap="round" stroke-linejoin="round" stroke-width="8.000000"
	d="
M29.000000,17.500000 
	C23.757961,16.117764 22.037260,17.978724 22.397827,23.506664 
	C22.678143,27.804211 23.023460,32.199619 22.000000,36.500000 
"/>
<path fill="none" opacity="1.000000" stroke="#FFFFFF" stroke-linecap="round" stroke-linejoin="round" stroke-width="8.000000"
	d="
M37.750000,13.000000 
	C30.476149,11.730875 29.759361,12.676165 30.401377,20.008635 
	C30.849838,25.130514 31.354151,30.326420 30.516638,35.502693 
	C30.043316,38.428082 27.093517,40.707176 25.742609,39.271687 
	C22.645844,35.981030 18.961977,38.611153 16.000000,37.000000 
"/>
<path fill="none" opacity="1.000000" stroke="#FFFFFF" stroke-linecap="round" stroke-linejoin="round" stroke-width="6.000000"
	d="
M45.000000,39.500000 
	C46.324780,36.398605 45.572987,33.797264 42.014526,34.147572 
	C37.256634,34.615959 35.087112,31.159107 32.000000,29.000000 
"/>
<path fill="none" opacity="1.000000" stroke="#FFFFFF" stroke-linecap="round" stroke-linejoin="round" stroke-width="6.000000"
	d="
M38.500000,34.500000 
	C38.206772,40.452049 33.964111,44.561031 31.500000,49.500000 
"/>
<path fill="none" opacity="1.000000" stroke="#FFFFFF" stroke-linecap="round" stroke-linejoin="round" stroke-width="8.000000"
	d="
M30.500000,38.500000 
	C33.612457,41.532101 37.556213,41.516102 41.500000,41.500000 
"/>
</svg>